<?xml version="1.0" encoding="UTF-8"?>
<!DOCTYPE svg PUBLIC "-//W3C//DTD SVG 1.1//EN" "http://www.w3.org/Graphics/SVG/1.1/DTD/svg11.dtd">
<svg xmlns="http://www.w3.org/2000/svg" version="1.1" width="500px" height="500px" style="shape-rendering:geometricPrecision; text-rendering:geometricPrecision; image-rendering:optimizeQuality; fill-rule:evenodd; clip-rule:evenodd" xmlns:xlink="http://www.w3.org/1999/xlink">
<g><path style="opacity:1" fill="#fdfefd" d="M -0.5,-0.5 C 166.167,-0.5 332.833,-0.5 499.5,-0.5C 499.5,166.167 499.5,332.833 499.5,499.5C 332.833,499.5 166.167,499.5 -0.5,499.5C -0.5,332.833 -0.5,166.167 -0.5,-0.5 Z"/></g>
<g><path style="opacity:1" fill="#388741" d="M 288.5,7.5 C 290.827,7.24707 292.827,7.91374 294.5,9.5C 294.167,10.5 293.5,11.1667 292.5,11.5C 290.625,10.5905 289.292,9.2572 288.5,7.5 Z"/></g>
<g><path style="opacity:1" fill="#2c8037" d="M 193.5,15.5 C 196.5,15.1667 197.833,16.5 197.5,19.5C 194.531,20.3287 191.531,20.4954 188.5,20C 190.24,18.483 191.906,16.983 193.5,15.5 Z"/></g>
<g><path style="opacity:1" fill="#31843d" d="M 318.5,16.5 C 321.932,16.2479 322.932,17.5812 321.5,20.5C 319.712,19.7174 318.712,18.3841 318.5,16.5 Z"/></g>
<g><path style="opacity:1" fill="#37863f" d="M 334.5,22.5 C 338.126,21.8607 339.959,23.194 340,26.5C 335.579,28.2237 333.745,26.8903 334.5,22.5 Z"/></g>
<g><path style="opacity:1" fill="#1e7a2c" d="M 138.5,75.5 C 144.999,71.1888 151.665,67.0221 158.5,63C 160.112,62.2797 161.612,62.4464 163,63.5C 166.533,58.1622 171.366,54.9955 177.5,54C 178.05,55.8446 179.05,57.3446 180.5,58.5C 185.256,56.4485 189.923,54.4485 194.5,52.5C 206.404,49.0232 218.404,46.1899 230.5,44C 229.975,43.3076 229.308,42.8076 228.5,42.5C 226.161,43.724 223.828,43.724 221.5,42.5C 223.959,41.6737 226.459,41.007 229,40.5C 230.434,40.9304 231.601,41.7638 232.5,43C 233.833,43.1667 235.167,43.3333 236.5,43.5C 249.971,42.693 263.305,41.8597 276.5,41C 277.973,41.7096 278.64,42.8762 278.5,44.5C 284.926,41.8031 291.26,42.1364 297.5,45.5C 299.54,50.1897 302.874,51.523 307.5,49.5C 307.261,51.4672 307.594,53.3005 308.5,55C 312.924,57.6527 317.59,58.486 322.5,57.5C 324.405,58.065 326.071,59.065 327.5,60.5C 328.754,58.7408 328.421,57.2408 326.5,56C 329.551,55.1433 332.217,55.81 334.5,58C 331.11,59.0062 330.11,61.0062 331.5,64C 359.944,77.6473 382.278,97.4806 398.5,123.5C 397.232,124.428 395.899,124.595 394.5,124C 394.364,119.364 392.531,115.531 389,112.5C 388.667,113.5 388.333,114.5 388,115.5C 387.107,114.289 386.274,114.289 385.5,115.5C 400.624,132.08 410.124,151.414 414,173.5C 410.962,164.735 405.962,157.402 399,151.5C 395.688,143.54 391.355,136.206 386,129.5C 376.47,120.304 367.303,110.804 358.5,101C 354.033,96.6004 349.033,92.9338 343.5,90C 342.207,89.51 340.873,89.3433 339.5,89.5C 339.677,87.0194 338.677,85.1861 336.5,84C 276.775,52.0319 218.441,54.3653 161.5,91C 159.093,93.2848 156.593,95.4514 154,97.5C 153.517,98.448 153.351,99.448 153.5,100.5C 147.402,103.074 142.235,107.074 138,112.5C 131.424,120.654 125.091,128.987 119,137.5C 117.894,141.897 119.394,143.23 123.5,141.5C 127.5,135.5 131.5,129.5 135.5,123.5C 134.833,122.5 134.167,121.5 133.5,120.5C 133.833,120.167 134.167,119.833 134.5,119.5C 135.768,120.428 137.101,120.595 138.5,120C 146.599,111.229 155.265,103.229 164.5,96C 167.5,94.5 170.5,93 173.5,91.5C 167.924,97.5077 161.258,103.008 153.5,108C 140.674,120.82 130.174,135.32 122,151.5C 121.251,152.635 121.417,153.635 122.5,154.5C 126.778,145.593 132.278,137.593 139,130.5C 145.719,123.57 152.553,116.736 159.5,110C 160.332,109.312 160.998,109.479 161.5,110.5C 156.186,117.648 150.019,123.981 143,129.5C 140.333,133.347 137.833,137.347 135.5,141.5C 136.272,146.337 134.938,150.67 131.5,154.5C 131.833,154.833 132.167,155.167 132.5,155.5C 150.384,122.97 176.884,100.637 212,88.5C 213.928,90.4243 216.262,91.4243 219,91.5C 221.034,91.6464 222.701,90.9797 224,89.5C 224.333,91.1667 224.667,92.8333 225,94.5C 226.763,93.0563 228.763,92.0563 231,91.5C 230.845,89.1893 230.845,86.856 231,84.5C 237.572,83.2564 239.738,85.923 237.5,92.5C 239.696,92.41 241.863,92.0767 244,91.5C 246.241,91.6801 246.741,92.5135 245.5,94C 241.556,94.9895 237.889,94.4895 234.5,92.5C 230.787,94.0445 227.121,95.7112 223.5,97.5C 222.281,96.7366 221.281,95.7366 220.5,94.5C 218.812,96.0294 217.479,97.8627 216.5,100C 214.782,100.346 213.115,100.846 211.5,101.5C 208.973,99.3946 206.64,97.0613 204.5,94.5C 204.167,94.8333 203.833,95.1667 203.5,95.5C 205.225,97.9567 205.725,100.623 205,103.5C 203.644,104.38 202.144,104.714 200.5,104.5C 200.719,103.325 200.386,102.325 199.5,101.5C 193.901,104.438 188.567,107.771 183.5,111.5C 182.148,110.482 181.148,109.149 180.5,107.5C 171.558,114.273 163.058,121.606 155,129.5C 154.46,131.135 154.96,132.468 156.5,133.5C 154.869,136.596 152.869,139.43 150.5,142C 148.793,142.195 147.126,142.195 145.5,142C 143.5,144.667 141.5,147.333 139.5,150C 140,150.5 140.5,151 141,151.5C 142.29,149.208 143.957,147.208 146,145.5C 146.459,148.93 145.459,151.93 143,154.5C 143.475,158.777 141.808,161.777 138,163.5C 138.918,169.912 136.418,174.412 130.5,177C 131.516,178.677 132.516,180.343 133.5,182C 132.167,183.333 130.833,184.667 129.5,186C 130.233,187.766 130.567,189.599 130.5,191.5C 132.592,191.439 134.092,190.439 135,188.5C 137.099,184.769 138.266,180.769 138.5,176.5C 140.288,176.785 141.955,176.452 143.5,175.5C 140.856,174.259 140.023,172.259 141,169.5C 142.986,169.032 144.819,169.032 146.5,169.5C 155.247,151.519 167.247,136.019 182.5,123C 188.398,120.71 193.732,117.377 198.5,113C 202.625,111.677 206.625,110.177 210.5,108.5C 210.281,107.325 210.614,106.325 211.5,105.5C 212.622,106.63 213.956,107.297 215.5,107.5C 197.612,115.718 181.779,127.052 168,141.5C 167.487,142.527 166.987,143.527 166.5,144.5C 163.842,146.968 161.509,149.635 159.5,152.5C 157.598,156.108 155.598,159.775 153.5,163.5C 153.667,163.833 153.833,164.167 154,164.5C 155.946,161.58 158.113,158.913 160.5,156.5C 161.71,156.932 162.71,157.599 163.5,158.5C 154.972,172.258 149.972,187.258 148.5,203.5C 150.124,203.36 151.29,204.027 152,205.5C 151.621,201.878 153.121,199.711 156.5,199C 154.789,197.867 154.289,196.367 155,194.5C 156.825,193.897 158.659,193.23 160.5,192.5C 161.775,189.627 162.608,186.627 163,183.5C 165.296,180.774 167.129,177.774 168.5,174.5C 170.277,176.893 172.61,178.56 175.5,179.5C 173.167,179.5 170.833,179.5 168.5,179.5C 169.914,180.624 171.414,181.624 173,182.5C 173.49,183.793 173.657,185.127 173.5,186.5C 171.571,186.769 169.905,186.269 168.5,185C 169.167,184.667 169.833,184.333 170.5,184C 169.207,183.51 167.873,183.343 166.5,183.5C 166.36,185.124 167.027,186.29 168.5,187C 164.726,188.399 163.06,191.232 163.5,195.5C 165.591,195.318 167.591,195.652 169.5,196.5C 173.34,202.297 172.007,206.131 165.5,208C 166.672,208.419 167.672,209.085 168.5,210C 166.403,211.61 164.07,212.777 161.5,213.5C 161.667,213.833 161.833,214.167 162,214.5C 169.468,211.79 169.968,212.457 163.5,216.5C 165.396,217.466 167.396,217.799 169.5,217.5C 169.222,220.29 169.889,222.79 171.5,225C 170.767,226.766 170.433,228.599 170.5,230.5C 173.368,231.017 176.034,231.35 178.5,231.5C 176.05,232.711 174.05,234.378 172.5,236.5C 173.764,239.79 174.93,243.124 176,246.5C 179.47,249.712 182.636,249.712 185.5,246.5C 184.167,245.5 182.833,244.5 181.5,243.5C 182.077,241.894 182.41,240.228 182.5,238.5C 180.108,231.11 178.941,223.443 179,215.5C 175.667,214.5 175.667,213.5 179,212.5C 179.361,205.801 180.028,199.135 181,192.5C 183.436,187.962 185.602,183.295 187.5,178.5C 191.026,181.094 194.692,183.427 198.5,185.5C 195.199,191.571 193.199,198.071 192.5,205C 193.096,207.85 193.763,210.683 194.5,213.5C 194.167,214.833 193.833,216.167 193.5,217.5C 193.167,215.5 192.833,213.5 192.5,211.5C 191.079,228.747 196.079,244.247 207.5,258C 219.382,268.667 233.382,274.5 249.5,275.5C 250.442,275.392 251.275,275.059 252,274.5C 252.519,275.516 253.353,276.182 254.5,276.5C 256.223,275.448 257.89,275.448 259.5,276.5C 264.705,274.645 270.371,273.145 276.5,272C 279.54,270.718 282.373,269.218 285,267.5C 285.689,268.357 286.522,269.023 287.5,269.5C 288.096,268.284 288.263,266.951 288,265.5C 289.328,267.669 290.994,268.002 293,266.5C 297.718,263.22 302.552,260.053 307.5,257C 310.812,256.462 313.979,256.962 317,258.5C 321.477,257.82 325.977,257.32 330.5,257C 333.432,252.818 337.265,251.652 342,253.5C 343.626,251.083 345.126,248.583 346.5,246C 347.5,245.333 348.5,245.333 349.5,246C 348.253,247.494 348.253,248.994 349.5,250.5C 350.386,249.675 350.719,248.675 350.5,247.5C 354.295,246.959 356.295,248.625 356.5,252.5C 357.167,250.5 357.833,248.5 358.5,246.5C 359.908,248.507 361.408,250.507 363,252.5C 363.465,251.069 364.299,249.903 365.5,249C 364.328,248.581 363.328,247.915 362.5,247C 364.402,246.801 365.902,245.967 367,244.5C 367.155,242.144 367.155,239.811 367,237.5C 368.813,236.391 369.646,237.058 369.5,239.5C 370.5,239.5 371.5,239.5 372.5,239.5C 372.027,235.403 372.027,231.403 372.5,227.5C 373.689,226.571 375.022,226.238 376.5,226.5C 375.366,230.836 375.366,235.169 376.5,239.5C 377.736,240.246 379.07,240.579 380.5,240.5C 380.34,242.199 380.506,243.866 381,245.5C 384.858,246.276 388.358,245.276 391.5,242.5C 388.435,241.064 386.269,238.731 385,235.5C 384.023,232.741 384.856,230.741 387.5,229.5C 388.478,229.977 389.311,230.643 390,231.5C 392.272,228.511 391.439,227.178 387.5,227.5C 387.5,225.833 387.5,224.167 387.5,222.5C 391.018,223.936 394.351,225.936 397.5,228.5C 398.452,226.955 398.785,225.288 398.5,223.5C 400.787,223.724 402.953,224.391 405,225.5C 407.271,223.875 409.104,224.209 410.5,226.5C 408.077,227.729 405.577,228.729 403,229.5C 404.22,232.858 403.553,235.858 401,238.5C 400.054,240.956 400.554,242.956 402.5,244.5C 403.167,243.5 403.833,242.5 404.5,241.5C 406.416,242.248 408.416,242.248 410.5,241.5C 410.108,244.722 410.608,247.722 412,250.5C 413.833,247.5 415.667,244.5 417.5,241.5C 413.214,237.627 413.881,234.627 419.5,232.5C 420.306,238.615 422.64,243.948 426.5,248.5C 425.94,252.137 424.94,255.637 423.5,259C 423.833,259.5 424.167,260 424.5,260.5C 427.135,259.527 429.135,257.86 430.5,255.5C 431.904,258.403 431.571,261.07 429.5,263.5C 430.213,265.776 430.713,268.109 431,270.5C 433.094,272.527 435.427,274.194 438,275.5C 438.113,277.974 439.113,279.974 441,281.5C 441.333,289.833 441.667,298.167 442,306.5C 444.019,309.262 443.852,311.928 441.5,314.5C 442.689,315.429 444.022,315.762 445.5,315.5C 442.333,320.501 439.666,325.834 437.5,331.5C 437.167,331.833 436.833,332.167 436.5,332.5C 435.346,330.144 434.013,329.977 432.5,332C 434.869,338.134 433.369,342.967 428,346.5C 418.428,360.076 408.094,373.076 397,385.5C 396.175,387.701 396.675,389.534 398.5,391C 398.002,392.158 397.169,392.991 396,393.5C 393.646,391.16 391.146,390.993 388.5,393C 373.655,404.84 357.989,415.506 341.5,425C 336.115,425.777 331.115,427.611 326.5,430.5C 325.707,430.069 324.873,429.735 324,429.5C 322.312,431.519 320.312,433.186 318,434.5C 317.781,435.938 317.281,437.271 316.5,438.5C 313.792,436.564 310.792,436.064 307.5,437C 303.058,439.802 298.225,441.635 293,442.5C 291.88,440.925 290.38,439.925 288.5,439.5C 287.277,441.811 284.943,443.645 281.5,445C 271.143,444.948 260.81,445.115 250.5,445.5C 238.818,444.21 227.152,442.71 215.5,441C 202.187,437.173 188.854,433.673 175.5,430.5C 175.5,429.5 175.5,428.5 175.5,427.5C 179.101,428.463 182.767,429.13 186.5,429.5C 186.703,427.61 186.037,426.11 184.5,425C 181.5,424.667 178.5,424.333 175.5,424C 172.395,422.132 169.062,420.965 165.5,420.5C 165.5,421.833 165.5,423.167 165.5,424.5C 160.28,424.551 158.113,422.218 159,417.5C 155.209,416.18 153.043,413.513 152.5,409.5C 147.348,406.555 146.681,407.055 150.5,411C 146.619,410.573 142.953,409.24 139.5,407C 136.953,406.34 134.453,406.507 132,407.5C 129.3,407.21 127.967,405.877 128,403.5C 131.457,405.232 134.291,404.566 136.5,401.5C 135.167,400.5 133.833,399.5 132.5,398.5C 131.614,399.325 131.281,400.325 131.5,401.5C 130.022,401.762 128.689,401.429 127.5,400.5C 127.077,397.397 126.077,394.564 124.5,392C 122.939,391.812 122.272,392.645 122.5,394.5C 121.448,394.649 120.448,394.483 119.5,394C 115.8,389.965 111.8,386.298 107.5,383C 110.82,383.265 113.487,384.931 115.5,388C 116,388.167 116.5,388.333 117,388.5C 118.257,388.15 118.591,387.483 118,386.5C 111.519,380.596 104.852,374.929 98,369.5C 91.5736,360.984 84.907,352.651 78,344.5C 78.5948,346.35 79.0948,348.35 79.5,350.5C 76.9009,350.451 74.7342,349.451 73,347.5C 69.5092,343.854 67.6759,339.52 67.5,334.5C 68.5,334.5 69.5,334.5 70.5,334.5C 65.306,324.112 59.1393,311.446 52,296.5C 51.9262,292.309 51.0929,288.309 49.5,284.5C 50.3279,283.585 51.3279,282.919 52.5,282.5C 54.1461,283.779 55.3128,285.445 56,287.5C 56.3108,285.444 56.8108,283.444 57.5,281.5C 56.1936,280.088 55.3603,278.421 55,276.5C 54.84,269.437 54.1733,262.437 53,255.5C 51.5993,253.808 49.7659,253.141 47.5,253.5C 47.7006,256.728 47.3672,259.895 46.5,263C 47.2703,264.775 48.437,266.275 50,267.5C 51.8354,271.262 51.8354,274.928 50,278.5C 49,277.5 48,276.5 47,275.5C 44.5204,267.898 42.3537,260.231 40.5,252.5C 40.6799,251.446 41.0133,250.446 41.5,249.5C 44.0472,248.066 46.3805,246.4 48.5,244.5C 46.674,244.08 44.674,244.08 42.5,244.5C 42.4056,241.015 41.239,238.015 39,235.5C 38.3333,233.167 38.3333,230.833 39,228.5C 40.7785,227.521 42.4452,227.854 44,229.5C 45.3989,232.363 46.3989,235.363 47,238.5C 48,236.167 49.6667,234.5 52,233.5C 51.5003,227.491 51.6669,221.491 52.5,215.5C 54.9461,229.74 56.6128,244.074 57.5,258.5C 58.8333,258.5 60.1667,258.5 61.5,258.5C 61.2767,260.342 60.9434,262.175 60.5,264C 60.7094,265.871 61.7094,267.038 63.5,267.5C 64.1667,269.5 64.8333,271.5 65.5,273.5C 65.8333,272.667 66.1667,271.833 66.5,271C 63.6899,258.616 61.5233,246.116 60,233.5C 59.3645,232.034 58.5312,230.7 57.5,229.5C 58.2673,204.799 61.934,180.466 68.5,156.5C 67.1667,156.5 65.8333,156.5 64.5,156.5C 64.0013,160.49 63.5013,164.49 63,168.5C 61.4126,169.727 60.0793,169.394 59,167.5C 58.1301,168.108 57.6301,168.941 57.5,170C 58.6233,173.818 59.9566,177.485 61.5,181C 59.9588,182.579 58.7922,184.413 58,186.5C 58.2399,192.486 58.2399,198.486 58,204.5C 57.5474,206.755 56.2141,208.089 54,208.5C 51.863,207.923 49.6963,207.59 47.5,207.5C 48.9948,196.181 50.4948,184.847 52,173.5C 53.308,170.27 54.308,166.936 55,163.5C 60.0748,159.764 62.4081,154.764 62,148.5C 62.6667,147.833 63.3333,147.167 64,146.5C 65.87,148.405 67.37,150.572 68.5,153C 69.3317,153.688 69.9984,153.521 70.5,152.5C 73.9692,143.563 77.9692,134.896 82.5,126.5C 78.9322,124.638 76.7655,125.638 76,129.5C 69.8979,132.733 68.2313,131.066 71,124.5C 75.1948,121.727 79.6948,120.894 84.5,122C 134.026,44.9095 204.026,14.2429 294.5,30C 319.37,35.3955 342.37,45.0622 363.5,59C 374.404,68.4062 385.737,77.2395 397.5,85.5C 398.982,87.4829 400.649,89.3163 402.5,91C 401.004,91.5074 399.837,91.0074 399,89.5C 398.333,90.1667 398.333,90.8333 399,91.5C 407.603,101.435 415.437,111.935 422.5,123C 421.365,123.749 420.365,123.583 419.5,122.5C 406.819,102.316 390.819,85.1494 371.5,71C 370.241,70.0181 368.908,69.6848 367.5,70C 371.024,71.9973 373.358,74.4973 374.5,77.5C 369.746,74.9131 365.413,71.7464 361.5,68C 350.337,61.9194 339.337,55.586 328.5,49C 291.755,34.4679 254.088,31.4679 215.5,40C 191.871,44.7309 169.871,53.3976 149.5,66C 145.641,69.0316 141.974,72.1983 138.5,75.5 Z"/></g>
<g><path style="opacity:1" fill="#388741" d="M 351.5,30.5 C 354.5,30.1667 355.833,31.5 355.5,34.5C 354.167,34.5 352.833,34.5 351.5,34.5C 351.5,33.1667 351.5,31.8333 351.5,30.5 Z"/></g>
<g><path style="opacity:1" fill="#3d8a47" d="M 359.5,34.5 C 363.967,34.6561 366.3,36.6561 366.5,40.5C 364.664,39.081 362.664,37.9143 360.5,37C 359.748,36.3292 359.414,35.4959 359.5,34.5 Z"/></g>
<g><path style="opacity:1" fill="#378641" d="M 194.5,52.5 C 192.396,52.7989 190.396,52.4656 188.5,51.5C 191.682,48.0411 195.349,47.2078 199.5,49C 197.767,50.1889 196.1,51.3556 194.5,52.5 Z"/></g>
<g><path style="opacity:1" fill="#2b8037" d="M 380.5,49.5 C 381.251,48.4265 382.251,48.2599 383.5,49C 385.329,50.1133 386.163,51.6133 386,53.5C 384.008,52.3353 382.175,51.002 380.5,49.5 Z"/></g>
<g><path style="opacity:1" fill="#37863f" d="M 182.5,52.5 C 185.957,52.6672 186.29,53.6672 183.5,55.5C 182.614,54.675 182.281,53.675 182.5,52.5 Z"/></g>
<g><path style="opacity:1" fill="#398742" d="M 128.5,47.5 C 129.525,47.8966 129.692,48.5632 129,49.5C 125.078,52.2114 121.244,55.0447 117.5,58C 116.365,58.7494 115.365,58.5827 114.5,57.5C 119.196,54.1572 123.863,50.8238 128.5,47.5 Z"/></g>
<g><path style="opacity:1" fill="#e2eee3" d="M 166.5,60.5 C 168.801,61.0604 171.134,61.5604 173.5,62C 170.535,64.4905 167.202,65.8238 163.5,66C 165.607,64.7365 166.607,62.9032 166.5,60.5 Z"/></g>
<g><path style="opacity:1" fill="#35853e" d="M 341.5,66.5 C 343.288,65.3775 345.288,65.2109 347.5,66C 350.997,67.8626 353.664,70.3626 355.5,73.5C 351.122,70.8041 346.455,68.4707 341.5,66.5 Z"/></g>
<g><path style="opacity:1" fill="#378640" d="M 105.5,65.5 C 106.788,67.4911 106.288,69.1578 104,70.5C 103.5,70.1667 103,69.8333 102.5,69.5C 103.524,68.1482 104.524,66.8149 105.5,65.5 Z"/></g>
<g><path style="opacity:1" fill="#388742" d="M 278.5,67.5 C 280.772,66.2355 283.105,66.4022 285.5,68C 283.071,68.7033 280.738,68.5366 278.5,67.5 Z"/></g>
<g><path style="opacity:1" fill="#388640" d="M 111.5,69.5 C 115.976,69.8003 117.31,71.9669 115.5,76C 109.683,76.3713 108.35,74.2047 111.5,69.5 Z"/></g>
<g><path style="opacity:1" fill="#eaf3ec" d="M 159.5,67.5 C 160.239,67.369 160.906,67.5357 161.5,68C 148.616,77.2113 136.616,87.5446 125.5,99C 124.4,99.4317 123.733,98.9317 123.5,97.5C 123.667,96.8333 123.833,96.1667 124,95.5C 125.78,94.4063 127.614,93.4063 129.5,92.5C 130.309,90.9291 130.643,89.2624 130.5,87.5C 131.833,87.5 133.167,87.5 134.5,87.5C 134.238,86.0222 134.571,84.6888 135.5,83.5C 141.669,81.927 146.003,78.2603 148.5,72.5C 150.776,71.7868 153.109,71.2868 155.5,71C 157.324,70.34 158.657,69.1733 159.5,67.5 Z"/></g>
<g><path style="opacity:1" fill="#2f8239" d="M 250.5,71.5 C 251.833,71.5 253.167,71.5 254.5,71.5C 254.674,73.861 255.007,76.1944 255.5,78.5C 242.12,78.9881 228.787,80.1548 215.5,82C 212.341,84.2332 209.008,85.0665 205.5,84.5C 209.024,82.5216 212.691,80.6883 216.5,79C 226.875,78.3855 237.208,77.3855 247.5,76C 248.883,74.7292 249.883,73.2292 250.5,71.5 Z"/></g>
<g><path style="opacity:1" fill="#287f35" d="M 286.5,71.5 C 288.665,71.1159 290.332,71.7826 291.5,73.5C 290.332,75.2174 288.665,75.8841 286.5,75.5C 286.5,74.1667 286.5,72.8333 286.5,71.5 Z"/></g>
<g><path style="opacity:1" fill="#2f8239" d="M 298.5,74.5 C 301.316,74.5442 303.649,75.5442 305.5,77.5C 301.867,79.3172 299.533,78.3172 298.5,74.5 Z"/></g>
<g><path style="opacity:1" fill="#378640" d="M 310.5,74.5 C 311.978,74.238 313.311,74.5713 314.5,75.5C 313.833,75.8333 313.167,76.1667 312.5,76.5C 311.287,76.2528 310.62,75.5862 310.5,74.5 Z"/></g>
<g><path style="opacity:1" fill="#c1dac4" d="M 138.5,75.5 C 137.415,77.5869 135.749,78.9202 133.5,79.5C 134.585,77.4131 136.251,76.0798 138.5,75.5 Z"/></g>
<g><path style="opacity:1" fill="#297f35" d="M 271.5,78.5 C 273.429,78.2308 275.095,78.7308 276.5,80C 275.667,80.1667 274.833,80.3333 274,80.5C 272.624,80.3158 271.791,79.6491 271.5,78.5 Z"/></g>
<g><path style="opacity:1" fill="#2b8037" d="M 310.5,78.5 C 312.346,78.2222 313.68,78.8888 314.5,80.5C 313.277,81.6139 311.944,81.7805 310.5,81C 309.402,80.2303 309.402,79.397 310.5,78.5 Z"/></g>
<g><path style="opacity:1" fill="#bad6bd" d="M 133.5,79.5 C 132.438,81.7565 130.772,82.9232 128.5,83C 129.789,81.1978 131.456,80.0312 133.5,79.5 Z"/></g>
<g><path style="opacity:1" fill="#378640" d="M 297.5,80.5 C 298.496,80.4142 299.329,80.7476 300,81.5C 300.273,83.3289 301.107,84.8289 302.5,86C 304.935,86.853 307.269,87.853 309.5,89C 307.833,89.6667 306.167,89.6667 304.5,89C 300.928,87.3523 297.261,85.8523 293.5,84.5C 293.167,84.1667 292.833,83.8333 292.5,83.5C 294.544,82.9348 296.21,81.9348 297.5,80.5 Z"/></g>
<g><path style="opacity:1" fill="#3c8944" d="M 180.5,82.5 C 183.084,82.5688 185.084,83.7355 186.5,86C 183.518,86.9153 180.852,88.4153 178.5,90.5C 177.373,88.7305 177.873,87.3972 180,86.5C 180.49,85.2068 180.657,83.8734 180.5,82.5 Z"/></g>
<g><path style="opacity:1" fill="#3d8a46" d="M 244.5,81.5 C 247.301,82.7659 250.301,83.5992 253.5,84C 253.957,84.414 254.291,84.914 254.5,85.5C 250.816,85.4646 247.149,85.4646 243.5,85.5C 243.433,84.0413 243.766,82.7079 244.5,81.5 Z"/></g>
<g><path style="opacity:1" fill="#54985b" d="M 378.5,79.5 C 380.649,80.7476 382.649,82.2476 384.5,84C 381.273,84.2865 379.273,82.7865 378.5,79.5 Z"/></g>
<g><path style="opacity:1" fill="#32833c" d="M 380.5,87.5 C 383.083,88.985 384.416,91.3183 384.5,94.5C 379.813,94.0838 378.479,91.7505 380.5,87.5 Z"/></g>
<g><path style="opacity:1" fill="#2e8138" d="M 100.5,87.5 C 101.763,91.6448 100.263,94.6448 96,96.5C 94.1667,99 92.3333,101.5 90.5,104C 88.0982,104.814 85.7649,104.647 83.5,103.5C 87.9842,96.6755 93.6509,91.3421 100.5,87.5 Z"/></g>
<g><path style="opacity:1" fill="#3b8843" d="M 265.5,89.5 C 267.437,91.0908 269.437,92.7575 271.5,94.5C 268.874,95.4492 266.208,95.4492 263.5,94.5C 263.392,92.4862 264.058,90.8195 265.5,89.5 Z"/></g>
<g><path style="opacity:1" fill="#448e4c" d="M 334.5,90.5 C 338.491,90.6478 339.324,92.3145 337,95.5C 335.906,93.9221 335.072,92.2554 334.5,90.5 Z"/></g>
<g><path style="opacity:1" fill="#adcfb2" d="M 366.5,94.5 C 368.296,95.7927 369.963,97.2927 371.5,99C 368.814,98.8228 367.148,97.3228 366.5,94.5 Z"/></g>
<g><path style="opacity:1" fill="#d6e7d9" d="M 199.5,96.5 C 202.101,97.9225 201.934,99.2558 199,100.5C 198.5,100.167 198,99.8333 197.5,99.5C 198.193,98.4822 198.859,97.4822 199.5,96.5 Z"/></g>
<g><path style="opacity:1" fill="#3a8945" d="M 281.5,96.5 C 282.995,96.4148 283.995,97.0815 284.5,98.5C 282.604,99.6394 281.604,98.9728 281.5,96.5 Z"/></g>
<g><path style="opacity:1" fill="#3e8a46" d="M 320.5,97.5 C 323.061,97.4469 325.061,98.4469 326.5,100.5C 326.167,100.833 325.833,101.167 325.5,101.5C 324.205,100.902 322.872,100.402 321.5,100C 320.748,99.3292 320.414,98.4959 320.5,97.5 Z"/></g>
<g><path style="opacity:1" fill="#c0d9c3" d="M 115.5,95.5 C 117.028,95.5173 117.528,96.184 117,97.5C 115.578,99.6381 113.745,100.805 111.5,101C 113.464,99.549 114.797,97.7157 115.5,95.5 Z"/></g>
<g><path style="opacity:1" fill="#34843d" d="M 174.5,97.5 C 176.355,97.272 177.188,97.9387 177,99.5C 171.42,102.512 170.587,101.845 174.5,97.5 Z"/></g>
<g><path style="opacity:1" fill="#398742" d="M 341.5,97.5 C 347.477,99.9675 352.477,103.801 356.5,109C 350.259,106.942 345.259,103.109 341.5,97.5 Z"/></g>
<g><path style="opacity:1" fill="#31823b" d="M 74.5,102.5 C 75.3764,102.369 76.0431,102.702 76.5,103.5C 72.3912,110.176 71.7245,109.842 74.5,102.5 Z"/></g>
<g><path style="opacity:1" fill="#499050" d="M 237.5,103.5 C 239.288,103.215 240.955,103.548 242.5,104.5C 241.332,106.217 239.665,106.884 237.5,106.5C 237.5,105.5 237.5,104.5 237.5,103.5 Z"/></g>
<g><path style="opacity:1" fill="#448d4b" d="M 227.5,105.5 C 229.833,105.5 232.167,105.5 234.5,105.5C 234.707,108.127 233.54,109.793 231,110.5C 230.574,108.985 229.074,107.985 226.5,107.5C 226.863,106.817 227.196,106.15 227.5,105.5 Z"/></g>
<g><path style="opacity:1" fill="#3a8945" d="M 215.5,107.5 C 216.172,106.733 217.005,106.066 218,105.5C 218.188,107.061 217.355,107.728 215.5,107.5 Z"/></g>
<g><path style="opacity:1" fill="#ff3735" d="M 274.5,106.5 C 277.061,106.447 279.061,107.447 280.5,109.5C 265.063,136.789 250.23,164.456 236,192.5C 232.657,197.218 228.157,198.718 222.5,197C 221.426,196.261 220.759,195.261 220.5,194C 222.161,190.518 223.661,187.018 225,183.5C 232.814,171.219 240.147,158.552 247,145.5C 247.701,141.096 249.701,137.429 253,134.5C 255.779,127.124 259.112,120.124 263,113.5C 265.345,108.51 269.178,106.176 274.5,106.5 Z"/></g>
<g><path style="opacity:1" fill="#398843" d="M 397.5,108.5 C 400.473,108.965 401.64,110.632 401,113.5C 399.198,112.211 398.031,110.544 397.5,108.5 Z"/></g>
<g><path style="opacity:1" fill="#36863f" d="M 177.5,112.5 C 178.675,112.281 179.675,112.614 180.5,113.5C 178.948,114.798 177.948,114.465 177.5,112.5 Z"/></g>
<g><path style="opacity:1" fill="#3c8a46" d="M 360.5,113.5 C 362.384,113.712 363.717,114.712 364.5,116.5C 362.219,117.262 360.886,116.262 360.5,113.5 Z"/></g>
<g><path style="opacity:1" fill="#2f823a" d="M 206.5,113.5 C 208.885,114.867 208.552,116.201 205.5,117.5C 205.167,117.167 204.833,116.833 204.5,116.5C 205.193,115.482 205.859,114.482 206.5,113.5 Z"/></g>
<g><path style="opacity:1" fill="#509558" d="M 297.5,116.5 C 299.103,116.312 300.437,116.812 301.5,118C 299.833,118.667 298.167,118.667 296.5,118C 297.056,117.617 297.389,117.117 297.5,116.5 Z"/></g>
<g><path style="opacity:1" fill="#31833c" d="M 172.5,117.5 C 173.239,117.369 173.906,117.536 174.5,118C 172.5,120 170.5,122 168.5,124C 167.365,124.749 166.365,124.583 165.5,123.5C 167.307,120.781 169.64,118.781 172.5,117.5 Z"/></g>
<g><path style="opacity:1" fill="#347e36" d="M 199.5,122.5 C 199.167,121.833 198.833,121.167 198.5,120.5C 204.555,117.749 204.889,118.416 199.5,122.5 Z"/></g>
<g><path style="opacity:1" fill="#2a8036" d="M 359.5,117.5 C 360.995,117.415 361.995,118.081 362.5,119.5C 360.604,120.639 359.604,119.973 359.5,117.5 Z"/></g>
<g><path style="opacity:1" fill="#448d4b" d="M 55.5,121.5 C 56.5,121.5 57.5,121.5 58.5,121.5C 58.4558,124.316 57.4558,126.649 55.5,128.5C 54.2857,126.141 54.2857,123.808 55.5,121.5 Z"/></g>
<g><path style="opacity:1" fill="#fd3533" d="M 198.5,120.5 C 198.833,121.167 199.167,121.833 199.5,122.5C 200.019,127.092 200.019,131.758 199.5,136.5C 197.611,137.604 195.945,138.937 194.5,140.5C 191.762,143.246 188.762,145.58 185.5,147.5C 182.985,149.182 180.985,151.348 179.5,154C 179.836,155.03 180.503,155.53 181.5,155.5C 183.937,157.433 186.271,159.6 188.5,162C 191.862,163.343 194.862,165.176 197.5,167.5C 200.133,172.109 201.133,177.109 200.5,182.5C 200.068,183.71 199.401,184.71 198.5,185.5C 194.692,183.427 191.026,181.094 187.5,178.5C 183.859,175.195 180.192,171.862 176.5,168.5C 173.712,165.964 170.712,163.631 167.5,161.5C 166.564,160.026 165.23,159.026 163.5,158.5C 162.71,157.599 161.71,156.932 160.5,156.5C 159.766,155.292 159.433,153.959 159.5,152.5C 161.509,149.635 163.842,146.968 166.5,144.5C 167.922,144.291 169.255,143.791 170.5,143C 178.686,135.422 187.02,128.088 195.5,121C 196.448,120.517 197.448,120.351 198.5,120.5 Z"/></g>
<g><path style="opacity:1" fill="#408c4a" d="M 223.5,121.5 C 229.313,121.344 229.646,122.011 224.5,123.5C 223.702,123.043 223.369,122.376 223.5,121.5 Z"/></g>
<g><path style="opacity:1" fill="#ff3634" d="M 299.5,121.5 C 301.655,121.372 303.655,121.872 305.5,123C 313.877,130.379 322.544,137.379 331.5,144C 334.551,146.714 337.218,149.714 339.5,153C 338.224,155.281 336.557,157.281 334.5,159C 330.39,163.109 325.723,166.443 320.5,169C 316.209,173.158 311.875,177.324 307.5,181.5C 304.935,183.894 302.101,184.894 299,184.5C 298.249,179.428 298.582,174.428 300,169.5C 302.906,166.963 306.073,164.796 309.5,163C 312.009,159.79 314.842,156.957 318,154.5C 318.49,153.207 318.657,151.873 318.5,150.5C 317.448,150.649 316.448,150.483 315.5,150C 310.994,145.161 306.161,140.661 301,136.5C 298.48,131.654 297.98,126.654 299.5,121.5 Z"/></g>
<g><path style="opacity:1" fill="#32833c" d="M 64.5,121.5 C 66.1042,122.287 66.7709,123.62 66.5,125.5C 65.5,125.5 64.5,125.5 63.5,125.5C 63.4326,124.041 63.7659,122.708 64.5,121.5 Z"/></g>
<g><path style="opacity:1" fill="#dfece0" d="M 110.5,114.5 C 111.239,114.369 111.906,114.536 112.5,115C 110.877,117.08 109.377,119.246 108,121.5C 106.758,122.872 105.258,123.872 103.5,124.5C 102.333,126.167 101.167,127.833 100,129.5C 99.3076,128.975 98.8076,128.308 98.5,127.5C 99.9336,123.732 102.6,121.398 106.5,120.5C 107.467,118.21 108.8,116.21 110.5,114.5 Z"/></g>
<g><path style="opacity:1" fill="#378640" d="M 205.5,134.5 C 205.523,129.323 208.19,127.156 213.5,128C 215.719,124.955 218.719,123.789 222.5,124.5C 222.374,127.595 220.707,129.428 217.5,130C 218.861,131.807 220.195,132.807 221.5,133C 221.046,134.622 220.046,135.788 218.5,136.5C 217.167,134.833 215.833,133.167 214.5,131.5C 212.214,132.42 209.881,132.42 207.5,131.5C 207.715,133.179 207.048,134.179 205.5,134.5 Z"/></g>
<g><path style="opacity:1" fill="#257d32" d="M 60.5,130.5 C 61.3764,130.369 62.0431,130.702 62.5,131.5C 61.1653,138.837 58.832,145.837 55.5,152.5C 53.6251,151.46 52.2918,149.96 51.5,148C 53.7711,144.907 54.9377,141.407 55,137.5C 57.7839,135.941 59.6173,133.608 60.5,130.5 Z"/></g>
<g><path style="opacity:1" fill="#c6ddc9" d="M 91.5,130.5 C 92.2121,132.794 91.3787,134.794 89,136.5C 88.9717,134.213 89.805,132.213 91.5,130.5 Z"/></g>
<g><path style="opacity:1" fill="#318038" d="M 205.5,134.5 C 205.631,135.239 205.464,135.906 205,136.5C 202.122,138.589 199.455,140.923 197,143.5C 196.764,141.881 195.931,140.881 194.5,140.5C 195.945,138.937 197.611,137.604 199.5,136.5C 201.048,136.179 201.715,135.179 201.5,133.5C 202.959,133.433 204.292,133.766 205.5,134.5 Z"/></g>
<g><path style="opacity:1" fill="#378641" d="M 379.5,129.5 C 382.439,131.988 384.939,134.988 387,138.5C 386.743,140.975 385.743,140.975 384,138.5C 382.473,135.447 380.973,132.447 379.5,129.5 Z"/></g>
<g><path style="opacity:1" fill="#48904f" d="M 413.5,132.5 C 416.719,133.021 417.719,134.688 416.5,137.5C 414.738,136.312 413.738,134.645 413.5,132.5 Z"/></g>
<g><path style="opacity:1" fill="#3c8844" d="M 66.5,137.5 C 71.2438,138.33 72.9104,140.997 71.5,145.5C 70.3112,146.429 68.9778,146.762 67.5,146.5C 67.6695,144.088 67.0028,141.921 65.5,140C 65.7432,139.098 66.0766,138.265 66.5,137.5 Z"/></g>
<g><path style="opacity:1" fill="#3f8b47" d="M 331.5,138.5 C 332.552,138.351 333.552,138.517 334.5,139C 335.79,141.292 337.457,143.292 339.5,145C 335.579,144.521 332.912,142.355 331.5,138.5 Z"/></g>
<g><path style="opacity:1" fill="#519659" d="M 407.5,135.5 C 410.423,136.163 411.09,137.83 409.5,140.5C 408.05,139.15 407.383,137.484 407.5,135.5 Z"/></g>
<g><path style="opacity:1" fill="#287e33" d="M 200.5,182.5 C 201.133,177.109 200.133,172.109 197.5,167.5C 205.033,159.8 213.033,152.633 221.5,146C 224.47,145.237 226.97,143.737 229,141.5C 229.692,142.025 230.192,142.692 230.5,143.5C 227.696,145.138 225.029,146.971 222.5,149C 219.943,152.628 217.277,156.128 214.5,159.5C 214.833,159.833 215.167,160.167 215.5,160.5C 218.44,157.196 222.107,155.196 226.5,154.5C 227.521,155.002 227.688,155.668 227,156.5C 216.31,163.357 207.477,172.024 200.5,182.5 Z"/></g>
<g><path style="opacity:1" fill="#ecf4ed" d="M 116.5,143.5 C 118.635,143.147 119.968,143.98 120.5,146C 114.357,154.955 113.023,154.122 116.5,143.5 Z"/></g>
<g><path style="opacity:1" fill="#388741" d="M 155.5,139.5 C 158.084,140.048 159.084,141.715 158.5,144.5C 157.5,144.5 156.5,144.5 155.5,144.5C 155.477,146.927 154.977,149.26 154,151.5C 153.107,152.711 152.274,152.711 151.5,151.5C 152.241,147.277 153.574,143.277 155.5,139.5 Z"/></g>
<g><path style="opacity:1" fill="#438e4d" d="M 201.5,143.5 C 202.675,143.281 203.675,143.614 204.5,144.5C 201.272,147.259 200.272,146.926 201.5,143.5 Z"/></g>
<g><path style="opacity:1" fill="#519558" d="M 379.5,143.5 C 381.074,143.937 382.241,144.937 383,146.5C 383.688,147.332 383.521,147.998 382.5,148.5C 381.048,147.06 380.048,145.394 379.5,143.5 Z"/></g>
<g><path style="opacity:1" fill="#41833e" d="M 185.5,147.5 C 187.441,148.436 189.108,149.77 190.5,151.5C 189.147,152.524 188.48,153.857 188.5,155.5C 186.167,155.5 183.833,155.5 181.5,155.5C 180.503,155.53 179.836,155.03 179.5,154C 180.985,151.348 182.985,149.182 185.5,147.5 Z"/></g>
<g><path style="opacity:1" fill="#2f823a" d="M 390.5,147.5 C 392.728,148.322 393.395,149.655 392.5,151.5C 390.889,150.68 390.222,149.346 390.5,147.5 Z"/></g>
<g><path style="opacity:1" fill="#f3f8f3" d="M 86.5,151.5 C 87.5,151.5 88.5,151.5 89.5,151.5C 89.7778,153.346 89.1112,154.68 87.5,155.5C 86.5713,154.311 86.238,152.978 86.5,151.5 Z"/></g>
<g><path style="opacity:1" fill="#e8f1e9" d="M 129.5,151.5 C 130.797,152.849 130.63,154.182 129,155.5C 128.421,154.072 128.588,152.738 129.5,151.5 Z"/></g>
<g><path style="opacity:1" fill="#f3f8f4" d="M 138.5,152.5 C 139.713,153.497 139.546,154.497 138,155.5C 137.53,154.423 137.697,153.423 138.5,152.5 Z"/></g>
<g><path style="opacity:1" fill="#3a8844" d="M 192.5,153.5 C 194.337,153.639 194.67,154.306 193.5,155.5C 192.702,155.043 192.369,154.376 192.5,153.5 Z"/></g>
<g><path style="opacity:1" fill="#35853f" d="M 49.5,156.5 C 52.2605,155.915 53.9272,156.915 54.5,159.5C 53.4329,162.534 52.2663,165.534 51,168.5C 49.9887,169.337 48.8221,169.67 47.5,169.5C 47.33,170.822 47.6634,171.989 48.5,173C 45.77,173.942 44.4367,172.942 44.5,170C 44.808,167.025 46.4747,165.359 49.5,165C 47.0468,162.251 47.0468,159.417 49.5,156.5 Z"/></g>
<g><path style="opacity:1" fill="#e0ede2" d="M 82.5,148.5 C 83.0967,148.735 83.4301,149.235 83.5,150C 82.1233,156.248 79.7899,162.081 76.5,167.5C 76.1667,167.167 75.8333,166.833 75.5,166.5C 77.8465,160.479 80.1798,154.479 82.5,148.5 Z"/></g>
<g><path style="opacity:1" fill="#dbeadd" d="M 119.5,156.5 C 120.376,156.369 121.043,156.702 121.5,157.5C 116.071,169.477 115.404,169.143 119.5,156.5 Z"/></g>
<g><path style="opacity:1" fill="#f6f9f6" d="M 163.5,158.5 C 165.23,159.026 166.564,160.026 167.5,161.5C 165.891,164.946 164.057,168.279 162,171.5C 161.219,172.944 161.386,174.277 162.5,175.5C 164.415,173.929 165.415,171.929 165.5,169.5C 167.367,169.955 169.2,170.622 171,171.5C 172.326,171.245 173.326,170.578 174,169.5C 175.461,170.883 176.294,170.549 176.5,168.5C 180.192,171.862 183.859,175.195 187.5,178.5C 185.602,183.295 183.436,187.962 181,192.5C 180.028,199.135 179.361,205.801 179,212.5C 175.667,213.5 175.667,214.5 179,215.5C 178.941,223.443 180.108,231.11 182.5,238.5C 182.41,240.228 182.077,241.894 181.5,243.5C 182.833,244.5 184.167,245.5 185.5,246.5C 182.636,249.712 179.47,249.712 176,246.5C 174.93,243.124 173.764,239.79 172.5,236.5C 174.05,234.378 176.05,232.711 178.5,231.5C 176.034,231.35 173.368,231.017 170.5,230.5C 170.433,228.599 170.767,226.766 171.5,225C 169.889,222.79 169.222,220.29 169.5,217.5C 167.396,217.799 165.396,217.466 163.5,216.5C 169.968,212.457 169.468,211.79 162,214.5C 161.833,214.167 161.667,213.833 161.5,213.5C 164.07,212.777 166.403,211.61 168.5,210C 167.672,209.085 166.672,208.419 165.5,208C 172.007,206.131 173.34,202.297 169.5,196.5C 167.591,195.652 165.591,195.318 163.5,195.5C 163.06,191.232 164.726,188.399 168.5,187C 167.027,186.29 166.36,185.124 166.5,183.5C 167.873,183.343 169.207,183.51 170.5,184C 169.833,184.333 169.167,184.667 168.5,185C 169.905,186.269 171.571,186.769 173.5,186.5C 173.657,185.127 173.49,183.793 173,182.5C 171.414,181.624 169.914,180.624 168.5,179.5C 170.833,179.5 173.167,179.5 175.5,179.5C 172.61,178.56 170.277,176.893 168.5,174.5C 167.129,177.774 165.296,180.774 163,183.5C 162.608,186.627 161.775,189.627 160.5,192.5C 158.659,193.23 156.825,193.897 155,194.5C 154.289,196.367 154.789,197.867 156.5,199C 153.121,199.711 151.621,201.878 152,205.5C 151.29,204.027 150.124,203.36 148.5,203.5C 149.972,187.258 154.972,172.258 163.5,158.5 Z"/></g>
<g><path style="opacity:1" fill="#d4e0d0" d="M 159.5,152.5 C 159.433,153.959 159.766,155.292 160.5,156.5C 158.113,158.913 155.946,161.58 154,164.5C 153.833,164.167 153.667,163.833 153.5,163.5C 155.598,159.775 157.598,156.108 159.5,152.5 Z"/></g>
<g><path style="opacity:1" fill="#e9f2ea" d="M 111.5,154.5 C 112.995,154.415 113.995,155.081 114.5,156.5C 113.185,158.316 111.685,159.983 110,161.5C 109.505,163.473 109.338,165.473 109.5,167.5C 107.61,167.297 106.11,167.963 105,169.5C 104.833,169.167 104.667,168.833 104.5,168.5C 107.223,163.978 109.556,159.312 111.5,154.5 Z"/></g>
<g><path style="opacity:1" fill="#3b833e" d="M 167.5,161.5 C 170.712,163.631 173.712,165.964 176.5,168.5C 176.294,170.549 175.461,170.883 174,169.5C 173.326,170.578 172.326,171.245 171,171.5C 169.2,170.622 167.367,169.955 165.5,169.5C 165.415,171.929 164.415,173.929 162.5,175.5C 161.386,174.277 161.219,172.944 162,171.5C 164.057,168.279 165.891,164.946 167.5,161.5 Z"/></g>
<g><path style="opacity:1" fill="#deebe0" d="M 130.5,167.5 C 132.62,168.85 132.453,170.517 130,172.5C 129.616,170.803 129.782,169.137 130.5,167.5 Z"/></g>
<g><path style="opacity:1" fill="#deebe0" d="M 125.5,164.5 C 126.675,164.281 127.675,164.614 128.5,165.5C 125.864,170.722 123.531,176.055 121.5,181.5C 121.167,180.833 120.833,180.167 120.5,179.5C 121.591,174.227 123.258,169.227 125.5,164.5 Z"/></g>
<g><path style="opacity:1" fill="#e3eee4" d="M 151.5,166.5 C 152.613,167.946 152.78,169.613 152,171.5C 149.582,176.724 147.582,182.057 146,187.5C 144.56,186.07 144.226,184.403 145,182.5C 147.456,177.259 149.623,171.925 151.5,166.5 Z"/></g>
<g><path style="opacity:1" fill="#418c49" d="M 158.5,181.5 C 159.649,181.791 160.316,182.624 160.5,184C 159.923,186.137 159.59,188.304 159.5,190.5C 158.5,190.5 157.5,190.5 156.5,190.5C 156.207,187.246 156.874,184.246 158.5,181.5 Z"/></g>
<g><path style="opacity:1" fill="#e3eee4" d="M 122.5,183.5 C 126.416,184.425 126.416,185.425 122.5,186.5C 121.438,185.575 121.438,184.575 122.5,183.5 Z"/></g>
<g><path style="opacity:1" fill="#deece0" d="M 70.5,187.5 C 71.5,187.5 72.5,187.5 73.5,187.5C 71.6139,193.764 70.6139,193.764 70.5,187.5 Z"/></g>
<g><path style="opacity:1" fill="#46904f" d="M 170.5,189.5 C 172.973,189.947 173.14,190.947 171,192.5C 169.272,191.648 169.105,190.648 170.5,189.5 Z"/></g>
<g><path style="opacity:1" fill="#32843d" d="M 397.5,190.5 C 399.441,192.011 399.941,194.011 399,196.5C 397.872,194.655 397.372,192.655 397.5,190.5 Z"/></g>
<g><path style="opacity:1" fill="#d2e4d4" d="M 135.5,195.5 C 138.205,195.38 138.872,196.38 137.5,198.5C 135.257,199.474 132.924,199.808 130.5,199.5C 130.5,198.5 130.5,197.5 130.5,196.5C 132.415,196.784 134.081,196.451 135.5,195.5 Z"/></g>
<g><path style="opacity:1" fill="#e2eee4" d="M 164.5,200.5 C 165.386,199.224 166.386,199.224 167.5,200.5C 166.767,201.087 165.767,201.087 164.5,200.5 Z"/></g>
<g><path style="opacity:1" fill="#2d8139" d="M 34.5,201.5 C 37.0567,203.404 36.8901,205.404 34,207.5C 33.3224,205.402 33.4891,203.402 34.5,201.5 Z"/></g>
<g><path style="opacity:1" fill="#edf4ee" d="M 161.5,202.5 C 162.978,202.238 164.311,202.571 165.5,203.5C 163.343,205.792 161.176,208.125 159,210.5C 158.849,213.119 158.015,215.453 156.5,217.5C 155.339,213.205 155.172,208.871 156,204.5C 157.948,203.891 159.782,203.224 161.5,202.5 Z"/></g>
<g><path style="opacity:1" fill="#36853f" d="M 417.5,203.5 C 419.017,203.511 420.184,204.177 421,205.5C 421.667,210.5 421.667,215.5 421,220.5C 420.586,220.957 420.086,221.291 419.5,221.5C 416.055,217.149 415.721,212.649 418.5,208C 418.227,206.467 417.894,204.967 417.5,203.5 Z"/></g>
<g><path style="opacity:1" fill="#d8e8da" d="M 121.5,205.5 C 123.103,205.312 124.437,205.812 125.5,207C 124.994,209.532 123.827,211.698 122,213.5C 121.971,210.674 121.805,208.007 121.5,205.5 Z"/></g>
<g><path style="opacity:1" fill="#aecfb2" d="M 67.5,207.5 C 68.7251,208.152 69.3917,209.319 69.5,211C 69.3333,212.167 69.1667,213.333 69,214.5C 67.6485,212.406 67.1485,210.073 67.5,207.5 Z"/></g>
<g><path style="opacity:1" fill="#2b8036" d="M 40.5,214.5 C 44.0951,215.85 45.4285,218.517 44.5,222.5C 43.5,222.5 42.5,222.5 41.5,222.5C 41.1667,219.833 40.8333,217.167 40.5,214.5 Z"/></g>
<g><path style="opacity:1" fill="#bbd7bf" d="M 121.5,218.5 C 122.649,218.791 123.316,219.624 123.5,221C 123.167,221.833 122.833,222.667 122.5,223.5C 121.548,221.955 121.215,220.288 121.5,218.5 Z"/></g>
<g><path style="opacity:1" fill="#ddebdf" d="M 129.5,218.5 C 131.052,220.035 132.385,221.869 133.5,224C 131.975,225.009 130.308,225.509 128.5,225.5C 128.579,224.07 128.246,222.736 127.5,221.5C 128.193,220.482 128.859,219.482 129.5,218.5 Z"/></g>
<g><path style="opacity:1" fill="#ecf4ed" d="M 147.5,224.5 C 148.675,224.281 149.675,224.614 150.5,225.5C 148.948,226.798 147.948,226.465 147.5,224.5 Z"/></g>
<g><path style="opacity:1" fill="#32833b" d="M 33.5,227.5 C 35.0672,228.681 35.9005,230.347 36,232.5C 36.551,245.474 38.7177,258.14 42.5,270.5C 40.5,270.5 38.5,270.5 36.5,270.5C 36.8297,267.843 37.163,265.176 37.5,262.5C 34.2801,251.072 32.9468,239.406 33.5,227.5 Z"/></g>
<g><path style="opacity:1" fill="#d3e5d5" d="M 129.5,228.5 C 132.377,230.302 132.877,232.636 131,235.5C 130.415,233.871 129.581,232.371 128.5,231C 128.743,230.098 129.077,229.265 129.5,228.5 Z"/></g>
<g><path style="opacity:1" fill="#e4efe5" d="M 152.5,227.5 C 154.074,229.102 154.741,231.102 154.5,233.5C 153.5,233.5 152.5,233.5 151.5,233.5C 151.762,234.978 151.429,236.311 150.5,237.5C 149.591,235.596 148.591,233.762 147.5,232C 149.09,230.368 150.756,228.868 152.5,227.5 Z"/></g>
<g><path style="opacity:1" fill="#f1f7f2" d="M 392.5,232.5 C 396.349,232.019 398.349,233.686 398.5,237.5C 395.288,237.288 393.288,235.621 392.5,232.5 Z"/></g>
<g><path style="opacity:1" fill="#e2eee4" d="M 390.5,236.5 C 394.31,237.754 394.31,238.754 390.5,239.5C 390.5,238.5 390.5,237.5 390.5,236.5 Z"/></g>
<g><path style="opacity:1" fill="#478f4f" d="M 425.5,241.5 C 428.588,241.197 430.254,242.53 430.5,245.5C 426.714,246.021 425.047,244.687 425.5,241.5 Z"/></g>
<g><path style="opacity:1" fill="#e5efe6" d="M 398.5,244.5 C 400.502,246.526 400.836,248.859 399.5,251.5C 398.526,249.257 398.192,246.924 398.5,244.5 Z"/></g>
<g><path style="opacity:1" fill="#eff5ef" d="M 69.5,247.5 C 70.209,246.596 71.209,246.263 72.5,246.5C 72.8531,252.811 71.8531,253.145 69.5,247.5 Z"/></g>
<g><path style="opacity:1" fill="#f3f8f4" d="M 379.5,247.5 C 383.411,247.747 386.744,249.247 389.5,252C 388.451,252.492 387.451,252.326 386.5,251.5C 385.167,252.833 383.833,254.167 382.5,255.5C 380.893,253.083 379.893,250.416 379.5,247.5 Z"/></g>
<g><path style="opacity:1" fill="#d0e3d2" d="M 407.5,247.5 C 408.725,248.152 409.392,249.319 409.5,251C 409.333,252.167 409.167,253.333 409,254.5C 408.338,252.187 407.838,249.854 407.5,247.5 Z"/></g>
<g><path style="opacity:1" fill="#468f4d" d="M 442.5,249.5 C 443.75,249.577 444.583,250.244 445,251.5C 445.499,255.152 445.665,258.818 445.5,262.5C 444.5,262.5 443.5,262.5 442.5,262.5C 441.403,258.11 441.403,253.777 442.5,249.5 Z"/></g>
<g><path style="opacity:1" fill="#f0f6f1" d="M 181.5,252.5 C 183.752,253.333 185.919,253.333 188,252.5C 189.022,253.354 189.855,254.354 190.5,255.5C 187.976,257.187 185.31,258.52 182.5,259.5C 182.617,257.516 181.95,255.85 180.5,254.5C 180.863,253.817 181.196,253.15 181.5,252.5 Z"/></g>
<g><path style="opacity:1" fill="#468f4e" d="M 274.5,255.5 C 276.465,255.948 276.798,256.948 275.5,258.5C 274.614,257.675 274.281,256.675 274.5,255.5 Z"/></g>
<g><path style="opacity:1" fill="#82b386" d="M 262.5,257.5 C 263.5,257.5 264.5,257.5 265.5,257.5C 265.5,258.5 265.5,259.5 265.5,260.5C 262.433,260.879 261.433,259.879 262.5,257.5 Z"/></g>
<g><path style="opacity:1" fill="#448d4b" d="M 276.5,261.5 C 285.623,261.205 285.79,262.205 277,264.5C 273.993,264.001 273.826,263.001 276.5,261.5 Z"/></g>
<g><path style="opacity:1" fill="#d4e5d6" d="M 188.5,264.5 C 190.134,265.207 191.468,266.373 192.5,268C 191.207,268.49 189.873,268.657 188.5,268.5C 188.5,267.167 188.5,265.833 188.5,264.5 Z"/></g>
<g><path style="opacity:1" fill="#f0f6f0" d="M 197.5,267.5 C 200.595,267.626 202.428,269.293 203,272.5C 202.954,274.313 203.12,275.979 203.5,277.5C 199.908,278.294 197.075,276.961 195,273.5C 194.333,272.5 194.333,271.5 195,270.5C 196.045,269.627 196.878,268.627 197.5,267.5 Z"/></g>
<g><path style="opacity:1" fill="#e4efe5" d="M 67.5,277.5 C 69.9451,280.333 71.1118,283.666 71,287.5C 68.3936,285.363 65.5603,283.696 62.5,282.5C 64.5212,281.145 66.1879,279.479 67.5,277.5 Z"/></g>
<g><path style="opacity:1" fill="#bad6be" d="M 210.5,283.5 C 211.5,283.5 212.5,283.5 213.5,283.5C 212.754,287.31 211.754,287.31 210.5,283.5 Z"/></g>
<g><path style="opacity:1" fill="#000200" d="M 221.5,285.5 C 225.319,285.605 228.986,286.438 232.5,288C 234.333,288.5 235.5,289.667 236,291.5C 236.382,308.761 236.882,325.927 237.5,343C 235.266,352.632 233.766,362.465 233,372.5C 229.662,376.343 227.162,380.676 225.5,385.5C 221.342,389.962 216.342,393.128 210.5,395C 206.465,399.359 201.465,400.692 195.5,399C 193.675,397.534 193.175,395.701 194,393.5C 197.417,390.15 201.084,387.15 205,384.5C 207.963,377.759 210.463,370.926 212.5,364C 212.39,340 212.056,316 211.5,292C 212.506,287.753 215.006,286.253 219,287.5C 220.301,287.361 221.134,286.695 221.5,285.5 Z"/></g>
<g><path style="opacity:1" fill="#000200" d="M 258.5,286.5 C 270.56,286.684 282.893,287.184 295.5,288C 306.117,290.622 315.284,295.789 323,303.5C 325.183,309.232 327.516,314.898 330,320.5C 329.442,327.507 329.442,334.507 330,341.5C 328.136,346.091 326.47,350.757 325,355.5C 321.874,357.95 319.541,360.95 318,364.5C 307.695,372.881 295.862,377.214 282.5,377.5C 273.513,377.98 264.513,377.48 255.5,376C 254.667,375.167 253.833,374.333 253,373.5C 252.445,350.176 252.445,326.843 253,303.5C 253.333,298.833 253.667,294.167 254,289.5C 255.652,288.601 257.152,287.601 258.5,286.5 Z"/></g>
<g><path style="opacity:1" fill="#509456" d="M 451.5,287.5 C 452.5,287.5 453.5,287.5 454.5,287.5C 454.752,290.932 453.419,291.932 450.5,290.5C 451.127,289.583 451.461,288.583 451.5,287.5 Z"/></g>
<g><path style="opacity:1" fill="#e0ece1" d="M 66.5,288.5 C 68.1207,288.787 69.1207,289.787 69.5,291.5C 68.675,292.386 67.675,292.719 66.5,292.5C 66.5,291.167 66.5,289.833 66.5,288.5 Z"/></g>
<g><path style="opacity:1" fill="#f1f7f2" d="M 60.5,293.5 C 61.5832,293.539 62.5832,293.873 63.5,294.5C 64.8333,297.833 64.8333,301.167 63.5,304.5C 62.914,304.291 62.414,303.957 62,303.5C 61.3897,300.173 60.8897,296.839 60.5,293.5 Z"/></g>
<g><path style="opacity:1" fill="#1b762a" d="M 279.5,298.5 C 288.669,297.193 295.502,300.526 300,308.5C 302.024,315.066 303.524,321.733 304.5,328.5C 303.975,334.831 303.475,341.165 303,347.5C 301.105,349.777 299.938,352.444 299.5,355.5C 294.742,362.713 288.075,365.879 279.5,365C 278.667,364.167 277.833,363.333 277,362.5C 276.579,342.767 276.412,323.1 276.5,303.5C 276.771,301.307 277.771,299.641 279.5,298.5 Z"/></g>
<g><path style="opacity:1" fill="#3b8945" d="M 448.5,302.5 C 451.047,304.29 450.714,305.956 447.5,307.5C 446.348,305.603 446.681,303.936 448.5,302.5 Z"/></g>
<g><path style="opacity:1" fill="#e6f0e8" d="M 75.5,321.5 C 76.9953,321.415 77.9953,322.081 78.5,323.5C 77.9588,325.535 77.2922,327.535 76.5,329.5C 74.2251,327.168 73.8918,324.502 75.5,321.5 Z"/></g>
<g><path style="opacity:1" fill="#388742" d="M 61.5,325.5 C 65.1612,325.35 66.1612,326.85 64.5,330C 62.2266,329.683 61.2266,328.183 61.5,325.5 Z"/></g>
<g><path style="opacity:1" fill="#3a8843" d="M 425.5,356.5 C 426.573,357.251 426.74,358.251 426,359.5C 425.059,361.061 423.892,362.395 422.5,363.5C 421.417,362.635 421.251,361.635 422,360.5C 423.376,359.295 424.542,357.962 425.5,356.5 Z"/></g>
<g><path style="opacity:1" fill="#3a8843" d="M 96.5,371.5 C 98.3841,371.712 99.7174,372.712 100.5,374.5C 97.5812,375.932 96.2479,374.932 96.5,371.5 Z"/></g>
<g><path style="opacity:1" fill="#2c8138" d="M 390.5,395.5 C 391.675,395.281 392.675,395.614 393.5,396.5C 392.167,398.5 390.5,400.167 388.5,401.5C 387.692,401.192 387.025,400.692 386.5,400C 388.041,398.629 389.375,397.129 390.5,395.5 Z"/></g>
<g><path style="opacity:1" fill="#2d8138" d="M 379.5,402.5 C 381.028,402.517 381.528,403.184 381,404.5C 378.863,405.479 377.029,406.812 375.5,408.5C 376.5,409.167 377.5,409.833 378.5,410.5C 375.044,414.451 370.878,417.451 366,419.5C 364.274,418.352 364.441,417.185 366.5,416C 366,415.833 365.5,415.667 365,415.5C 362.784,417.366 360.284,418.2 357.5,418C 365.075,413.057 372.409,407.891 379.5,402.5 Z"/></g>
<g><path style="opacity:1" fill="#3d8a46" d="M 353.5,423.5 C 355.355,423.272 356.188,423.939 356,425.5C 349.029,429.695 348.196,429.029 353.5,423.5 Z"/></g>
<g><path style="opacity:1" fill="#e4efe5" d="M 189.5,428.5 C 192.871,429.323 196.204,430.489 199.5,432C 197.167,432.667 194.833,432.667 192.5,432C 190.574,431.578 189.574,430.411 189.5,428.5 Z"/></g>
<g><path style="opacity:1" fill="#3f8a47" d="M 340.5,431.5 C 342.337,431.639 342.67,432.306 341.5,433.5C 335.245,436.187 334.912,435.52 340.5,431.5 Z"/></g>
<g><path style="opacity:1" fill="#378640" d="M 308.5,441.5 C 309.833,441.5 311.167,441.5 312.5,441.5C 312.254,444.47 310.588,445.803 307.5,445.5C 307.433,444.041 307.766,442.708 308.5,441.5 Z"/></g>
<g><path style="opacity:1" fill="#418b48" d="M 285.5,444.5 C 292.167,445.5 292.167,446.5 285.5,447.5C 285.5,446.5 285.5,445.5 285.5,444.5 Z"/></g>
<g><path style="opacity:1" fill="#438d4b" d="M 295.5,445.5 C 296.833,445.5 298.167,445.5 299.5,445.5C 298.994,449.634 296.994,450.467 293.5,448C 294.381,447.292 295.047,446.458 295.5,445.5 Z"/></g>
</svg>
