<?xml version="1.0" encoding="UTF-8"?>
<!DOCTYPE svg PUBLIC "-//W3C//DTD SVG 1.1//EN" "http://www.w3.org/Graphics/SVG/1.1/DTD/svg11.dtd">
<svg xmlns="http://www.w3.org/2000/svg" version="1.1" width="500px" height="500px" style="shape-rendering:geometricPrecision; text-rendering:geometricPrecision; image-rendering:optimizeQuality; fill-rule:evenodd; clip-rule:evenodd" xmlns:xlink="http://www.w3.org/1999/xlink">
<g><path style="opacity:0.647" fill="#2c6f3e" d="M 288.5,6.5 C 291.358,6.59544 293.691,7.76211 295.5,10C 292.41,11.823 289.743,11.1564 287.5,8C 288.056,7.61742 288.389,7.11742 288.5,6.5 Z"/></g>
<g><path style="opacity:1" fill="#2d723a" d="M 193.5,14.5 C 196.372,14.6354 197.872,15.9688 198,18.5C 194.773,20.779 191.273,21.4456 187.5,20.5C 189.533,18.4934 191.533,16.4934 193.5,14.5 Z"/></g>
<g><path style="opacity:0.678" fill="#346e3c" d="M 318.5,15.5 C 321.321,15.3159 322.988,16.6493 323.5,19.5C 319.566,21.2424 317.899,19.909 318.5,15.5 Z"/></g>
<g><path style="opacity:1" fill="#2a7136" d="M 333.5,22.5 C 336.908,21.828 339.575,22.828 341.5,25.5C 338.519,28.0891 335.519,27.9224 332.5,25C 333.252,24.3292 333.586,23.4959 333.5,22.5 Z"/></g>
<g><path style="opacity:1" fill="#2b6f37" d="M 351.5,30.5 C 355.161,30.3501 356.161,31.8501 354.5,35C 351.041,35.1454 350.041,33.6454 351.5,30.5 Z"/></g>
<g><path style="opacity:1" fill="#266f33" d="M 359.5,33.5 C 363.787,34.4456 366.12,36.779 366.5,40.5C 363.274,39.3942 360.607,37.5609 358.5,35C 359.056,34.6174 359.389,34.1174 359.5,33.5 Z"/></g>
<g><path style="opacity:1" fill="#22762f" d="M 384.5,82.5 C 384.5,81.8333 384.167,81.5 383.5,81.5C 383.158,80.6618 382.492,80.3284 381.5,80.5C 381.5,79.8333 381.167,79.5 380.5,79.5C 378.338,75.6359 376.338,75.3025 374.5,78.5C 369.409,75.5771 364.742,72.0771 360.5,68C 349.337,61.9194 338.337,55.586 327.5,49C 287.23,33.2252 246.23,31.2252 204.5,43C 194.489,46.337 184.489,49.6703 174.5,53C 177.667,53.5 179.5,55.3333 180,58.5C 180.671,57.7476 181.504,57.4142 182.5,57.5C 181.713,59.1042 180.38,59.7709 178.5,59.5C 178.915,57.0523 177.915,55.7189 175.5,55.5C 173.675,56.6511 171.675,57.3178 169.5,57.5C 169.48,59.143 170.147,60.4763 171.5,61.5C 171.376,62.1067 171.043,62.44 170.5,62.5C 169.504,62.5858 168.671,62.2524 168,61.5C 164.666,65.9351 165.499,66.6017 170.5,63.5C 171.239,63.369 171.906,63.5357 172.5,64C 171.54,65.4194 170.707,66.9194 170,68.5C 168.187,68.7467 166.353,69.08 164.5,69.5C 163.718,72.0758 162.218,74.0758 160,75.5C 159.257,77.4406 159.424,79.2739 160.5,81C 159.437,82.1882 158.103,82.6882 156.5,82.5C 157.092,79.8728 157.425,77.2062 157.5,74.5C 156.325,74.281 155.325,74.6143 154.5,75.5C 151.762,78.2824 148.929,80.9491 146,83.5C 145.259,82.3595 144.425,82.3595 143.5,83.5C 143.167,84.8333 142.833,86.1667 142.5,87.5C 140.591,88.3482 138.591,88.6816 136.5,88.5C 138.5,86.1667 140.5,83.8333 142.5,81.5C 140.254,82.4552 137.921,83.1218 135.5,83.5C 135.371,85.2161 135.038,86.8828 134.5,88.5C 131.858,88.4877 130.525,89.821 130.5,92.5C 129.167,92.8333 129.167,93.1667 130.5,93.5C 128.572,95.7808 127.572,98.4475 127.5,101.5C 124.507,100.514 121.507,99.5139 118.5,98.5C 118.5,99.5 118.5,100.5 118.5,101.5C 116.708,101.634 115.042,101.301 113.5,100.5C 113.167,99.1667 112.833,99.1667 112.5,100.5C 111.5,100.5 110.5,100.5 109.5,100.5C 109.5,98.1667 109.5,95.8333 109.5,93.5C 108.448,93.3505 107.448,93.5172 106.5,94C 104.598,96.62 102.265,98.7867 99.5,100.5C 139.624,49.164 191.957,24.164 256.5,25.5C 307.554,26.5456 351.554,44.379 388.5,79C 394.197,81.6912 399.03,85.5246 403,90.5C 403.456,91.7441 402.956,92.5774 401.5,93C 409.244,102.492 416.244,112.492 422.5,123C 422.167,123.5 421.833,124 421.5,124.5C 412.154,112.206 402.32,100.206 392,88.5C 389.337,86.6664 386.837,84.6664 384.5,82.5 Z M 168.5,56.5 C 166.673,57.9319 165.006,59.5986 163.5,61.5C 161.604,62.4656 159.604,62.7989 157.5,62.5C 160.678,59.7417 164.345,57.7417 168.5,56.5 Z M 170.5,62.5 C 170.5,62.8333 170.5,63.1667 170.5,63.5C 165.499,66.6017 164.666,65.9351 168,61.5C 168.671,62.2524 169.504,62.5858 170.5,62.5 Z M 155.5,63.5 C 154.998,65.0847 153.998,65.5847 152.5,65C 153.244,63.9614 154.244,63.4614 155.5,63.5 Z M 156.5,71.5 C 152.447,74.8827 148.114,77.8827 143.5,80.5C 145.528,78.2868 147.195,75.7868 148.5,73C 151.207,72.6049 153.873,72.1049 156.5,71.5 Z M 142.5,81.5 C 140.5,83.8333 138.5,86.1667 136.5,88.5C 135.833,88.5 135.167,88.5 134.5,88.5C 135.038,86.8828 135.371,85.2161 135.5,83.5C 137.921,83.1218 140.254,82.4552 142.5,81.5 Z M 134.5,88.5 C 133.5,90.1667 132.167,91.5 130.5,92.5C 130.525,89.821 131.858,88.4877 134.5,88.5 Z M 128.5,94.5 C 127.438,96.7565 125.772,97.9232 123.5,98C 124.219,95.4438 125.886,94.2771 128.5,94.5 Z M 199.5,97.5 C 201.975,97.7467 201.975,98.4134 199.5,99.5C 198.537,99.0302 198.537,98.3635 199.5,97.5 Z"/></g>
<g><path style="opacity:1" fill="#1c782b" d="M 272.5,40.5 C 275.596,39.9066 277.929,40.9066 279.5,43.5C 281.021,42.0627 282.855,41.396 285,41.5C 288.92,41.9506 292.753,42.7839 296.5,44C 298.613,48.3904 301.946,50.0571 306.5,49C 307.38,50.3561 307.714,51.8561 307.5,53.5C 308.987,55.6054 310.987,57.272 313.5,58.5C 314.732,60.1569 315.566,61.8236 316,63.5C 313.013,61.7723 309.846,60.939 306.5,61C 307.687,62.0195 308.687,63.1861 309.5,64.5C 305.172,65.6658 300.839,66.6658 296.5,67.5C 290.466,65.808 284.466,64.1413 278.5,62.5C 278.389,61.8826 278.056,61.3826 277.5,61C 264.838,60.5001 252.171,60.3334 239.5,60.5C 239.5,59.5 239.5,58.5 239.5,57.5C 242.85,57.665 246.183,57.4983 249.5,57C 246.367,55.4303 243.033,55.0969 239.5,56C 238.478,58.3163 236.978,58.8163 235,57.5C 234.5,59.3333 233.333,60.5 231.5,61C 231.833,61.3333 232.167,61.6667 232.5,62C 228.911,62.2069 225.411,62.7069 222,63.5C 218.603,62.6937 215.437,61.3603 212.5,59.5C 211.476,60.8532 210.143,61.5198 208.5,61.5C 208.167,59.5 207.833,57.5 207.5,55.5C 205.799,55.0338 204.299,55.0338 203,55.5C 203.533,51.6279 205.7,50.6279 209.5,52.5C 212.434,51.5332 215.1,50.1999 217.5,48.5C 223.122,46.4141 227.955,47.4141 232,51.5C 235.63,51.2031 238.13,49.3698 239.5,46C 246.78,45.5364 254.114,45.703 261.5,46.5C 263.167,44.6667 264.833,42.8333 266.5,41C 268.473,40.5045 270.473,40.3379 272.5,40.5 Z"/></g>
<g><path style="opacity:1" fill="#2e6e3c" d="M 380.5,47.5 C 383.624,47.9429 385.957,49.6095 387.5,52.5C 383.355,53.5818 381.022,51.9151 380.5,47.5 Z"/></g>
<g><path style="opacity:1" fill="#2a6f36" d="M 127.5,47.5 C 128.756,47.4614 129.756,47.9614 130.5,49C 125.638,52.6947 120.638,56.1947 115.5,59.5C 114.386,58.277 114.219,56.9437 115,55.5C 119.609,53.3646 123.776,50.698 127.5,47.5 Z"/></g>
<g><path style="opacity:1" fill="#247432" d="M 272.5,40.5 C 270.473,40.3379 268.473,40.5045 266.5,41C 264.833,42.8333 263.167,44.6667 261.5,46.5C 254.114,45.703 246.78,45.5364 239.5,46C 238.13,49.3698 235.63,51.2031 232,51.5C 227.955,47.4141 223.122,46.4141 217.5,48.5C 215.1,50.1999 212.434,51.5332 209.5,52.5C 205.7,50.6279 203.533,51.6279 203,55.5C 204.299,55.0338 205.799,55.0338 207.5,55.5C 207.833,57.5 208.167,59.5 208.5,61.5C 210.143,61.5198 211.476,60.8532 212.5,59.5C 215.437,61.3603 218.603,62.6937 222,63.5C 225.411,62.7069 228.911,62.2069 232.5,62C 232.167,61.6667 231.833,61.3333 231.5,61C 233.333,60.5 234.5,59.3333 235,57.5C 236.978,58.8163 238.478,58.3163 239.5,56C 243.033,55.0969 246.367,55.4303 249.5,57C 246.183,57.4983 242.85,57.665 239.5,57.5C 239.5,58.5 239.5,59.5 239.5,60.5C 252.171,60.3334 264.838,60.5001 277.5,61C 278.056,61.3826 278.389,61.8826 278.5,62.5C 249.589,59.3397 221.589,63.0064 194.5,73.5C 195.29,72.2058 196.29,71.0391 197.5,70C 201.495,68.6702 205.495,67.3369 209.5,66C 205.92,65.0739 202.586,64.5739 199.5,64.5C 201.16,60.9211 203.327,60.5878 206,63.5C 206.982,62.2411 207.315,60.9078 207,59.5C 204.448,58.8067 202.281,57.4733 200.5,55.5C 197.815,57.6759 194.982,57.6759 192,55.5C 189.042,56.8589 185.876,57.5256 182.5,57.5C 182.918,56.7784 183.584,56.2784 184.5,56C 180.918,55.4046 180.584,54.0712 183.5,52C 184.449,51.3828 185.282,51.5494 186,52.5C 185.923,53.7376 186.089,54.7376 186.5,55.5C 187.795,54.9017 189.128,54.4017 190.5,54C 189.09,53.6322 188.09,52.7989 187.5,51.5C 191.958,46.933 196.625,46.5996 201.5,50.5C 210.71,47.7984 220.043,45.6317 229.5,44C 226.833,44 224.167,44 221.5,44C 220.159,42.1735 220.659,41.0069 223,40.5C 225.098,41.8776 226.932,41.5442 228.5,39.5C 230.975,41.3304 233.641,42.6637 236.5,43.5C 244.813,42.7584 253.147,42.2584 261.5,42C 263.17,40.0246 265.336,39.1912 268,39.5C 269.707,39.5085 271.207,39.8418 272.5,40.5 Z"/></g>
<g><path style="opacity:1" fill="#247533" d="M 307.5,53.5 C 313.012,56.7578 319.012,58.2578 325.5,58C 326.275,59.2295 327.275,59.5628 328.5,59C 326.963,57.8904 326.297,56.3904 326.5,54.5C 334.804,54.2185 336.138,56.7185 330.5,62C 333.059,64.103 335.726,65.9363 338.5,67.5C 333,68.1451 330,65.8117 329.5,60.5C 325.921,60.6837 322.587,60.017 319.5,58.5C 319.5,59.5 319.5,60.5 319.5,61.5C 320.5,61.5 321.5,61.5 322.5,61.5C 322.5,62.5 322.5,63.5 322.5,64.5C 317.268,64.8921 312.268,66.0588 307.5,68C 312.494,71.6891 318.16,74.0224 324.5,75C 325.807,77.3237 327.807,78.657 330.5,79C 331.252,79.6708 331.586,80.5041 331.5,81.5C 326.188,79.1788 320.855,76.8455 315.5,74.5C 314.895,78.0647 313.228,78.2314 310.5,75C 310.645,74.228 310.978,73.5613 311.5,73C 306.429,71.0353 301.429,69.202 296.5,67.5C 300.839,66.6658 305.172,65.6658 309.5,64.5C 308.687,63.1861 307.687,62.0195 306.5,61C 309.846,60.939 313.013,61.7723 316,63.5C 315.566,61.8236 314.732,60.1569 313.5,58.5C 310.987,57.272 308.987,55.6054 307.5,53.5 Z"/></g>
<g><path style="opacity:1" fill="#297235" d="M 342.5,64.5 C 348.871,64.9123 353.204,67.9123 355.5,73.5C 352.401,73.9077 350.067,72.741 348.5,70C 345.554,69.1939 342.888,67.8605 340.5,66C 341.416,65.7216 342.082,65.2216 342.5,64.5 Z"/></g>
<g><path style="opacity:1" fill="#2f6b3c" d="M 105.5,64.5 C 106.478,64.811 107.145,65.4777 107.5,66.5C 107.322,69.8043 105.656,71.4709 102.5,71.5C 102.688,68.7939 103.688,66.4605 105.5,64.5 Z"/></g>
<g><path style="opacity:0.537" fill="#3a7646" d="M 278.5,66.5 C 281.893,66.0617 284.893,66.8951 287.5,69C 285.5,69.6667 283.5,69.6667 281.5,69C 279.881,68.7645 278.881,67.9311 278.5,66.5 Z"/></g>
<g><path style="opacity:1" fill="#2a7138" d="M 287.5,70.5 C 290.484,70.7868 291.817,72.4535 291.5,75.5C 289.5,75.5 287.5,75.5 285.5,75.5C 285.392,73.4862 286.058,71.8195 287.5,70.5 Z"/></g>
<g><path style="opacity:1" fill="#2a7135" d="M 112.5,68.5 C 115.05,68.8844 116.383,70.3844 116.5,73C 114.179,78.8861 111.846,78.7195 109.5,72.5C 109.787,70.5567 110.787,69.2233 112.5,68.5 Z"/></g>
<g><path style="opacity:1" fill="#2b7238" d="M 297.5,74.5 C 301.05,74.1329 304.05,75.1329 306.5,77.5C 304.235,78.6474 301.902,78.8141 299.5,78C 298.177,77.1841 297.511,76.0174 297.5,74.5 Z"/></g>
<g><path style="opacity:1" fill="#2a7237" d="M 250.5,70.5 C 251.833,70.5 253.167,70.5 254.5,70.5C 255.291,73.4168 255.291,76.2501 254.5,79C 247.314,80.141 240.147,80.3077 233,79.5C 227.921,80.8424 222.754,81.6757 217.5,82C 213.475,84.8517 209.141,85.6851 204.5,84.5C 204.709,83.914 205.043,83.414 205.5,83C 209.509,82.2523 213.176,80.7523 216.5,78.5C 226.153,77.5302 235.82,76.6968 245.5,76C 248.615,75.5071 250.281,73.6737 250.5,70.5 Z"/></g>
<g><path style="opacity:1" fill="#2f723f" d="M 309.5,78.5 C 311.977,78.0508 313.977,78.7175 315.5,80.5C 314.252,82.69 312.586,83.0234 310.5,81.5C 309.614,80.675 309.281,79.675 309.5,78.5 Z"/></g>
<g><path style="opacity:0.271" fill="#347743" d="M 270.5,78.5 C 272.833,78.5 275.167,78.5 277.5,78.5C 277.5,79.5 277.5,80.5 277.5,81.5C 274.539,81.5358 272.206,80.5358 270.5,78.5 Z"/></g>
<g><path style="opacity:0.988" fill="#2b7137" d="M 180.5,81.5 C 184.167,81.8333 186.167,83.8333 186.5,87.5C 183.197,88.4386 179.864,89.4386 176.5,90.5C 176.662,88.1756 177.828,86.5089 180,85.5C 180.49,84.2068 180.657,82.8734 180.5,81.5 Z"/></g>
<g><path style="opacity:1" fill="#366f3f" d="M 380.5,79.5 C 381.167,79.5 381.5,79.8333 381.5,80.5C 381.842,81.3382 382.508,81.6716 383.5,81.5C 384.167,81.5 384.5,81.8333 384.5,82.5C 384.128,85.7162 382.794,86.2162 380.5,84C 379.743,82.4878 378.743,81.1545 377.5,80C 378.448,79.5172 379.448,79.3505 380.5,79.5 Z"/></g>
<g><path style="opacity:1" fill="#2d743a" d="M 243.5,81.5 C 247.165,82.219 250.832,83.0524 254.5,84C 254.957,84.414 255.291,84.914 255.5,85.5C 251.801,86.1012 248.134,86.4345 244.5,86.5C 242.246,85.286 241.913,83.6194 243.5,81.5 Z"/></g>
<g><path style="opacity:1" fill="#30723d" d="M 297.5,80.5 C 298.5,80.5 299.5,80.5 300.5,80.5C 300.297,82.3904 300.963,83.8904 302.5,85C 305.938,85.92 308.938,87.5867 311.5,90C 310.333,90.1667 309.167,90.3333 308,90.5C 303.149,88.1029 297.982,86.2696 292.5,85C 292.043,84.586 291.709,84.086 291.5,83.5C 293.884,82.9892 295.884,81.9892 297.5,80.5 Z"/></g>
<g><path style="opacity:1" fill="#2f733d" d="M 334.5,90.5 C 335.833,90.5 337.167,90.5 338.5,90.5C 337.595,96.9632 336.262,96.9632 334.5,90.5 Z"/></g>
<g><path style="opacity:1" fill="#1f772d" d="M 338.5,67.5 C 357.454,76.7792 373.454,89.7792 386.5,106.5C 386.703,108.044 387.37,109.378 388.5,110.5C 387.691,112.071 387.357,113.738 387.5,115.5C 387.062,115.435 386.728,115.601 386.5,116C 388.698,119.023 391.031,121.856 393.5,124.5C 393.5,125.167 393.833,125.5 394.5,125.5C 405.225,140.948 412.058,157.948 415,176.5C 412.376,169.919 409.209,163.586 405.5,157.5C 403.063,156.197 400.896,154.53 399,152.5C 395.773,145.044 391.773,138.044 387,131.5C 374.124,116.623 359.957,103.123 344.5,91C 342.975,89.9914 341.308,89.4914 339.5,89.5C 339.649,88.448 339.483,87.448 339,86.5C 336.521,84.6859 334.021,83.0192 331.5,81.5C 331.586,80.5041 331.252,79.6708 330.5,79C 327.807,78.657 325.807,77.3237 324.5,75C 318.16,74.0224 312.494,71.6891 307.5,68C 312.268,66.0588 317.268,64.8921 322.5,64.5C 322.5,63.5 322.5,62.5 322.5,61.5C 321.5,61.5 320.5,61.5 319.5,61.5C 319.5,60.5 319.5,59.5 319.5,58.5C 322.587,60.017 325.921,60.6837 329.5,60.5C 330,65.8117 333,68.1451 338.5,67.5 Z"/></g>
<g><path style="opacity:1" fill="#2c7235" d="M 379.5,87.5 C 380.822,87.33 381.989,87.6634 383,88.5C 384.427,90.7053 384.927,92.8719 384.5,95C 379.829,94.4967 378.163,91.9967 379.5,87.5 Z"/></g>
<g><path style="opacity:1" fill="#2b7338" d="M 265.5,89.5 C 267.516,90.4564 269.349,91.7898 271,93.5C 271.483,94.448 271.649,95.448 271.5,96.5C 268.801,96.5339 266.301,95.8672 264,94.5C 263.36,92.4567 263.86,90.7901 265.5,89.5 Z"/></g>
<g><path style="opacity:1" fill="#257531" d="M 99.5,87.5 C 100.586,87.62 101.253,88.2867 101.5,89.5C 101.075,93.7581 98.9085,96.7581 95,98.5C 93.1357,103.994 89.3023,105.994 83.5,104.5C 83.6079,102.217 84.4412,100.217 86,98.5C 89.3451,94.7957 93.1784,91.9623 97.5,90C 98.3805,89.2917 99.0472,88.4584 99.5,87.5 Z"/></g>
<g><path style="opacity:0.804" fill="#3a6e40" d="M 281.5,95.5 C 283.384,95.7118 284.717,96.7118 285.5,98.5C 284.167,99.8333 282.833,99.8333 281.5,98.5C 280.209,97.4728 280.209,96.4728 281.5,95.5 Z"/></g>
<g><path style="opacity:1" fill="#326d3b" d="M 320.5,96.5 C 323.168,96.8337 325.168,98.1671 326.5,100.5C 322.526,102.178 320.526,100.844 320.5,96.5 Z"/></g>
<g><path style="opacity:0.996" fill="#2c7438" d="M 341.5,96.5 C 347.678,99.4415 353.012,103.608 357.5,109C 356.167,109.667 354.833,109.667 353.5,109C 349.351,106.181 345.517,103.014 342,99.5C 341.517,98.552 341.351,97.552 341.5,96.5 Z"/></g>
<g><path style="opacity:0.863" fill="#32693c" d="M 75.5,101.5 C 76.4778,101.811 77.1445,102.478 77.5,103.5C 76.2433,105.679 74.7433,107.679 73,109.5C 72.3076,108.975 71.8076,108.308 71.5,107.5C 72.4671,105.21 73.8004,103.21 75.5,101.5 Z"/></g>
<g><path style="opacity:0.629" fill="#397245" d="M 241.5,102.5 C 243.225,102.843 243.725,103.843 243,105.5C 241.301,106.406 239.467,106.739 237.5,106.5C 237.5,105.5 237.5,104.5 237.5,103.5C 239.099,103.768 240.432,103.434 241.5,102.5 Z"/></g>
<g><path style="opacity:1" fill="#2d733c" d="M 226.5,105.5 C 229.722,105.108 232.722,105.608 235.5,107C 233.983,108.685 232.316,110.185 230.5,111.5C 229.614,110.675 229.281,109.675 229.5,108.5C 228.5,108.5 227.5,108.5 226.5,108.5C 226.5,107.5 226.5,106.5 226.5,105.5 Z"/></g>
<g><path style="opacity:1" fill="#dc4445" d="M 279.5,111.5 C 279.5,110.5 279.5,109.5 279.5,108.5C 275.486,108.334 271.486,108.501 267.5,109C 266.627,110.045 265.627,110.878 264.5,111.5C 265.176,108.661 267.009,106.995 270,106.5C 272.959,106.536 275.959,106.87 279,107.5C 281.682,108.892 281.848,110.225 279.5,111.5 Z"/></g>
<g><path style="opacity:1" fill="#317041" d="M 397.5,108.5 C 399.973,108.736 401.64,110.069 402.5,112.5C 399.213,113.568 397.546,112.235 397.5,108.5 Z"/></g>
<g><path style="opacity:1" fill="#367445" d="M 181.5,111.5 C 181.151,114.838 179.484,115.838 176.5,114.5C 177.421,112.244 179.088,111.244 181.5,111.5 Z"/></g>
<g><path style="opacity:1" fill="#386f3f" d="M 205.5,113.5 C 206.978,113.238 208.311,113.571 209.5,114.5C 208.056,117.226 206.056,118.226 203.5,117.5C 203.733,115.938 204.4,114.605 205.5,113.5 Z"/></g>
<g><path style="opacity:0.2" fill="#317641" d="M 360.5,113.5 C 364.625,113.723 365.291,115.223 362.5,118C 363.337,119.011 363.67,120.178 363.5,121.5C 360.886,121.723 359.219,120.556 358.5,118C 360.037,116.89 360.703,115.39 360.5,113.5 Z"/></g>
<g><path style="opacity:0.545" fill="#5b5d4a" d="M 296.5,116.5 C 298.167,116.5 299.833,116.5 301.5,116.5C 301.5,117.5 301.5,118.5 301.5,119.5C 298.966,119.741 297.3,118.741 296.5,116.5 Z"/></g>
<g><path style="opacity:1" fill="#2d7439" d="M 164.5,122.5 C 165.167,122.5 165.5,122.167 165.5,121.5C 166.167,121.5 166.5,121.167 166.5,120.5C 168.255,119.928 169.922,119.094 171.5,118C 172.833,117.333 174.167,117.333 175.5,118C 172.984,120.683 170.317,123.183 167.5,125.5C 165.787,125.121 164.787,124.121 164.5,122.5 Z"/></g>
<g><path style="opacity:1" fill="#456b3b" d="M 203.5,117.5 C 203.727,119.933 202.727,121.599 200.5,122.5C 199.5,121.833 198.5,121.167 197.5,120.5C 199.181,118.992 201.181,117.992 203.5,117.5 Z"/></g>
<g><path style="opacity:1" fill="#286f37" d="M 386.5,106.5 C 390.618,112.12 395.285,117.287 400.5,122C 399.257,124.455 397.257,125.622 394.5,125.5C 393.833,125.5 393.5,125.167 393.5,124.5C 392.363,122.161 392.196,119.828 393,117.5C 391.639,114.882 389.806,114.215 387.5,115.5C 387.357,113.738 387.691,112.071 388.5,110.5C 387.37,109.378 386.703,108.044 386.5,106.5 Z"/></g>
<g><path style="opacity:0.141" fill="#326d49" d="M 223.5,121.5 C 225.199,121.34 226.866,121.506 228.5,122C 226.728,123.487 224.728,123.82 222.5,123C 223.056,122.617 223.389,122.117 223.5,121.5 Z"/></g>
<g><path style="opacity:1" fill="#2e703c" d="M 56.5,120.5 C 57.9953,120.415 58.9953,121.081 59.5,122.5C 59.0713,125.147 57.7379,127.147 55.5,128.5C 54.102,125.565 54.4353,122.898 56.5,120.5 Z"/></g>
<g><path style="opacity:0.978" fill="#2c713a" d="M 63.5,121.5 C 68.3821,122.011 68.7155,123.678 64.5,126.5C 62.2957,125.218 61.9624,123.551 63.5,121.5 Z"/></g>
<g><path style="opacity:1" fill="#1c772b" d="M 182.5,57.5 C 185.876,57.5256 189.042,56.8589 192,55.5C 194.982,57.6759 197.815,57.6759 200.5,55.5C 202.281,57.4733 204.448,58.8067 207,59.5C 207.315,60.9078 206.982,62.2411 206,63.5C 203.327,60.5878 201.16,60.9211 199.5,64.5C 202.586,64.5739 205.92,65.0739 209.5,66C 205.495,67.3369 201.495,68.6702 197.5,70C 196.29,71.0391 195.29,72.2058 194.5,73.5C 189.54,75.647 184.873,78.3136 180.5,81.5C 172.734,84.8837 165.401,89.0503 158.5,94C 151.083,100.413 143.917,107.246 137,114.5C 136.003,116.323 134.836,117.99 133.5,119.5C 128.451,125.214 123.785,131.214 119.5,137.5C 118.624,137.369 117.957,137.702 117.5,138.5C 116.985,140.225 116.318,141.892 115.5,143.5C 114.5,142.833 113.5,142.167 112.5,141.5C 112.167,142 111.833,142.5 111.5,143C 112.296,144.092 112.963,145.259 113.5,146.5C 112.928,148.687 112.928,151.021 113.5,153.5C 111.533,153.261 109.699,153.594 108,154.5C 106.215,158.305 105.382,162.305 105.5,166.5C 106.568,167.434 107.901,167.768 109.5,167.5C 110.117,167.611 110.617,167.944 111,168.5C 111.727,165.845 112.894,163.512 114.5,161.5C 115.008,163.653 115.674,164.987 116.5,165.5C 117.167,165.5 117.5,165.167 117.5,164.5C 118.167,164.5 118.5,164.167 118.5,163.5C 119.496,163.586 120.329,163.252 121,162.5C 122.5,159.667 124,156.833 125.5,154C 127.061,153.812 127.728,154.645 127.5,156.5C 129.911,156.863 131.411,155.863 132,153.5C 133.107,154.712 133.607,154.379 133.5,152.5C 134.833,152.167 134.833,151.833 133.5,151.5C 133.631,150.761 133.464,150.094 133,149.5C 131.312,151.045 129.312,152.045 127,152.5C 127.011,147.144 129.178,142.811 133.5,139.5C 134.208,141.745 135.208,143.745 136.5,145.5C 136.5,146.167 136.833,146.5 137.5,146.5C 138.078,149.37 139.745,151.037 142.5,151.5C 143.041,154.652 142.041,157.152 139.5,159C 139.957,159.414 140.291,159.914 140.5,160.5C 139.15,161.95 137.484,162.617 135.5,162.5C 135.431,159.916 134.265,157.916 132,156.5C 132.112,158.178 132.612,159.845 133.5,161.5C 132.503,163.915 131.003,165.915 129,167.5C 128.51,166.207 128.343,164.873 128.5,163.5C 126.821,163.285 125.821,163.952 125.5,165.5C 124.603,166.598 123.77,166.598 123,165.5C 122.308,166.025 121.808,166.692 121.5,167.5C 120.734,171.848 120.734,176.181 121.5,180.5C 121.5,180.833 121.5,181.167 121.5,181.5C 121.5,182.833 121.5,184.167 121.5,185.5C 121.5,185.833 121.5,186.167 121.5,186.5C 122.455,188.71 123.955,189.043 126,187.5C 126.748,189.751 128.248,191.084 130.5,191.5C 135.751,187.667 138.417,182.333 138.5,175.5C 139.822,175.33 140.989,175.663 142,176.5C 142.5,176 143,175.5 143.5,175C 138.366,172.939 138.199,170.439 143,167.5C 143.689,168.357 144.522,169.023 145.5,169.5C 146.807,166.531 148.473,163.865 150.5,161.5C 152.142,159.919 154.142,159.253 156.5,159.5C 157.167,159.5 157.5,159.167 157.5,158.5C 158.833,158.5 160.167,158.5 161.5,158.5C 161.5,159.833 161.5,161.167 161.5,162.5C 155.337,174.672 151.004,187.505 148.5,201C 148.528,202.07 148.861,202.903 149.5,203.5C 151.999,208.431 153.999,213.597 155.5,219C 157.201,219.345 158.534,218.678 159.5,217C 158.646,215.215 159.313,214.049 161.5,213.5C 161.5,214.167 161.833,214.5 162.5,214.5C 163.139,216.76 164.306,218.76 166,220.5C 167.011,221.337 168.178,221.67 169.5,221.5C 170.629,222.47 171.629,223.636 172.5,225C 171.833,226.333 171.167,227.667 170.5,229C 170.836,230.03 171.503,230.53 172.5,230.5C 171.56,234.463 171.393,238.463 172,242.5C 174.398,244.18 175.565,246.514 175.5,249.5C 178.522,249.804 181.522,250.304 184.5,251C 183.058,251.377 182.058,252.21 181.5,253.5C 180.583,255.662 180.583,257.995 181.5,260.5C 184.545,260.658 187.379,259.991 190,258.5C 191.205,254.266 189.705,251.599 185.5,250.5C 186.278,248.055 187.945,246.722 190.5,246.5C 191.863,247.198 193.029,247.198 194,246.5C 194.253,249.2 194.253,251.867 194,254.5C 195.067,253.809 196.234,253.309 197.5,253C 196.167,252 196.167,251 197.5,250C 195.421,245.465 196.255,245.298 200,249.5C 200.72,251.112 200.554,252.612 199.5,254C 200.563,255.188 201.897,255.688 203.5,255.5C 202.67,260.328 204.17,263.328 208,264.5C 208.492,263.451 208.326,262.451 207.5,261.5C 208.325,260.614 209.325,260.281 210.5,260.5C 227.251,272.657 245.251,277.157 264.5,274C 263.304,273.346 263.304,272.846 264.5,272.5C 271.906,272.899 278.906,271.233 285.5,267.5C 285.47,268.497 285.97,269.164 287,269.5C 293.841,267.663 300.007,264.496 305.5,260C 309.492,258.191 313.326,258.358 317,260.5C 322.048,258.916 327.214,257.916 332.5,257.5C 335.286,255.394 338.286,253.727 341.5,252.5C 343.354,249.49 345.687,246.824 348.5,244.5C 349.308,244.808 349.975,245.308 350.5,246C 349.483,247.049 349.316,248.216 350,249.5C 352.994,248.266 355.994,247.266 359,246.5C 360.477,247.444 361.477,248.777 362,250.5C 362.75,249.874 363.584,249.374 364.5,249C 361.388,248.149 361.054,246.983 363.5,245.5C 364.922,246.777 365.922,246.443 366.5,244.5C 367.931,244.119 368.764,243.119 369,241.5C 369.351,246.198 369.851,250.864 370.5,255.5C 372.359,255.539 373.692,254.706 374.5,253C 372.831,249.363 372.164,245.696 372.5,242C 373.905,240.731 375.571,240.231 377.5,240.5C 378.488,245.789 379.155,251.122 379.5,256.5C 383.433,256.424 386.933,255.091 390,252.5C 390.048,250.456 389.548,248.456 388.5,246.5C 389.491,245.335 390.491,244.168 391.5,243C 391.241,241.739 390.574,240.739 389.5,240C 390.094,239.536 390.761,239.369 391.5,239.5C 391.833,239.5 392.167,239.5 392.5,239.5C 393.15,239.196 393.817,238.863 394.5,238.5C 396.302,239.986 398.302,240.986 400.5,241.5C 400.567,242.959 400.234,244.292 399.5,245.5C 398.212,247.035 398.212,248.701 399.5,250.5C 400.298,250.043 400.631,249.376 400.5,248.5C 400.733,246.938 401.4,245.605 402.5,244.5C 403.161,243.282 403.828,241.949 404.5,240.5C 406.042,241.747 407.542,241.747 409,240.5C 410.747,243.21 411.747,246.21 412,249.5C 413.632,247.067 415.132,244.567 416.5,242C 413.608,237.665 414.442,234.165 419,231.5C 420.169,236.192 422.003,240.526 424.5,244.5C 426.637,248.817 426.637,253.317 424.5,258C 424.85,259.257 425.517,259.591 426.5,259C 429.337,253.047 431.337,253.214 432.5,259.5C 430.61,262.539 429.944,265.706 430.5,269C 432.158,271.919 434.658,273.752 438,274.5C 438.113,276.974 439.113,278.974 441,280.5C 442.818,284.436 442.985,288.436 441.5,292.5C 441.813,298.506 442.813,304.34 444.5,310C 443.74,311.441 443.074,312.941 442.5,314.5C 443.325,315.386 444.325,315.719 445.5,315.5C 445.908,318.599 444.741,320.933 442,322.5C 440.132,325.605 438.965,328.938 438.5,332.5C 436.61,332.703 435.11,332.037 434,330.5C 434.996,334.554 434.662,338.554 433,342.5C 427.027,348.451 422.027,355.118 418,362.5C 410.598,370.229 403.598,378.229 397,386.5C 397.783,388.345 398.116,390.345 398,392.5C 395.242,393.117 392.409,393.284 389.5,393C 385.268,396.743 380.935,400.243 376.5,403.5C 378.239,402.566 379.905,402.566 381.5,403.5C 380.027,405.395 378.36,407.061 376.5,408.5C 377.811,409.258 378.311,410.258 378,411.5C 374.451,415.358 370.285,418.358 365.5,420.5C 364.281,419.737 363.281,418.737 362.5,417.5C 360.208,419.024 358.208,418.691 356.5,416.5C 351.002,419.415 345.668,422.581 340.5,426C 334.73,427.389 329.063,429.056 323.5,431C 319.795,432.699 317.628,435.533 317,439.5C 313.817,437.477 310.317,436.977 306.5,438C 301.968,440.622 297.135,442.455 292,443.5C 289.429,438.726 287.595,438.726 286.5,443.5C 285.508,443.328 284.842,443.662 284.5,444.5C 254.376,447.715 225.043,444.881 196.5,436C 188.403,435.437 181.069,432.937 174.5,428.5C 178.136,427.185 181.636,427.518 185,429.5C 185.5,429.167 186,428.833 186.5,428.5C 184.61,424.538 181.61,423.371 177.5,425C 173.901,423.691 170.401,422.191 167,420.5C 164.862,425.442 161.862,425.775 158,421.5C 157.508,420.451 157.674,419.451 158.5,418.5C 157.135,417.059 155.635,415.726 154,414.5C 153.902,412.381 153.069,410.714 151.5,409.5C 150.614,410.325 150.281,411.325 150.5,412.5C 146.444,410.975 142.444,409.141 138.5,407C 136.191,406.244 134.191,406.744 132.5,408.5C 124.355,404.247 124.689,402.747 133.5,404C 134.357,403.311 135.023,402.478 135.5,401.5C 134.24,400.618 133.074,399.618 132,398.5C 132.999,401.504 131.832,402.671 128.5,402C 127.299,401.097 126.465,399.931 126,398.5C 126.128,396.555 125.962,394.722 125.5,393C 123.924,393.152 122.591,393.985 121.5,395.5C 116.855,392.023 112.355,388.356 108,384.5C 107.517,383.552 107.351,382.552 107.5,381.5C 110.624,381.943 112.957,383.61 114.5,386.5C 115.451,387.326 116.451,387.492 117.5,387C 112.687,382.43 107.687,378.097 102.5,374C 100.414,373.373 100.081,373.873 101.5,375.5C 99.1567,376.725 97.3234,376.059 96,373.5C 96.6667,372.167 97.3333,370.833 98,369.5C 92.0936,362.683 86.427,355.683 81,348.5C 79.5822,350.363 77.7489,350.863 75.5,350C 69.7987,345.933 67.1321,340.599 67.5,334C 68.5768,333.53 69.5768,333.697 70.5,334.5C 69.2774,331.726 67.7774,329.059 66,326.5C 65.51,327.793 65.3433,329.127 65.5,330.5C 61.6052,330.143 60.6052,328.143 62.5,324.5C 63.451,325.326 64.451,325.492 65.5,325C 59.8232,315.159 54.8232,304.993 50.5,294.5C 51.0219,293.393 51.3552,292.226 51.5,291C 50.4968,288.532 49.9968,286.032 50,283.5C 50.6891,282.643 51.5224,281.977 52.5,281.5C 54.1461,282.779 55.3128,284.445 56,286.5C 56.2734,284.899 56.7734,283.399 57.5,282C 53.7175,277.031 52.7175,271.531 54.5,265.5C 56.0931,264.652 57.2597,263.319 58,261.5C 59.0196,265.495 60.853,268.995 63.5,272C 66.1494,272.452 68.6494,273.286 71,274.5C 71.4828,273.552 71.6495,272.552 71.5,271.5C 70.5,271.5 69.5,271.5 68.5,271.5C 68.2942,265.499 66.6275,259.999 63.5,255C 65.0718,252.102 64.4052,249.935 61.5,248.5C 60.5297,243.21 59.6964,237.877 59,232.5C 57.9783,231.646 57.1449,230.646 56.5,229.5C 58.424,221.704 59.0906,213.704 58.5,205.5C 59.9688,191.704 62.6355,178.037 66.5,164.5C 68.1094,161.851 68.9428,158.851 69,155.5C 73.6593,151.754 75.826,146.754 75.5,140.5C 76.8925,135.215 79.2258,130.382 82.5,126C 81.1667,125.333 79.8333,125.333 78.5,126C 77.086,131.259 73.9193,132.759 69,130.5C 68.72,126.422 70.5533,123.589 74.5,122C 77.562,121.259 80.562,121.425 83.5,122.5C 88.5031,114.845 93.8365,107.511 99.5,100.5C 102.265,98.7867 104.598,96.62 106.5,94C 107.448,93.5172 108.448,93.3505 109.5,93.5C 109.5,95.8333 109.5,98.1667 109.5,100.5C 110.5,100.5 111.5,100.5 112.5,100.5C 112.833,100.5 113.167,100.5 113.5,100.5C 115.042,101.301 116.708,101.634 118.5,101.5C 118.5,100.5 118.5,99.5 118.5,98.5C 121.507,99.5139 124.507,100.514 127.5,101.5C 127.572,98.4475 128.572,95.7808 130.5,93.5C 130.5,93.1667 130.5,92.8333 130.5,92.5C 132.167,91.5 133.5,90.1667 134.5,88.5C 135.167,88.5 135.833,88.5 136.5,88.5C 138.591,88.6816 140.591,88.3482 142.5,87.5C 142.833,86.1667 143.167,84.8333 143.5,83.5C 144.425,82.3595 145.259,82.3595 146,83.5C 148.929,80.9491 151.762,78.2824 154.5,75.5C 155.325,74.6143 156.325,74.281 157.5,74.5C 157.425,77.2062 157.092,79.8728 156.5,82.5C 158.103,82.6882 159.437,82.1882 160.5,81C 159.424,79.2739 159.257,77.4406 160,75.5C 162.218,74.0758 163.718,72.0758 164.5,69.5C 166.353,69.08 168.187,68.7467 170,68.5C 170.707,66.9194 171.54,65.4194 172.5,64C 171.906,63.5357 171.239,63.369 170.5,63.5C 170.5,63.1667 170.5,62.8333 170.5,62.5C 171.043,62.44 171.376,62.1067 171.5,61.5C 170.147,60.4763 169.48,59.143 169.5,57.5C 171.675,57.3178 173.675,56.6511 175.5,55.5C 177.915,55.7189 178.915,57.0523 178.5,59.5C 180.38,59.7709 181.713,59.1042 182.5,57.5 Z M 105.5,122.5 C 103.193,123.977 101.36,125.977 100,128.5C 99.8737,124.79 101.707,122.79 105.5,122.5 Z M 128.5,94.5 C 125.886,94.2771 124.219,95.4438 123.5,98C 125.772,97.9232 127.438,96.7565 128.5,94.5 Z M 87.5,151.5 C 88.3764,151.369 89.0431,151.702 89.5,152.5C 86.7404,156.564 86.0737,156.231 87.5,151.5 Z M 118.5,162.5 C 118.491,160.692 118.991,159.025 120,157.5C 120.599,159.535 120.099,161.201 118.5,162.5 Z M 111.5,154.5 C 112.473,154.987 113.473,155.487 114.5,156C 109.451,162.375 108.451,161.875 111.5,154.5 Z M 125.5,147.5 C 125.177,150.402 123.844,152.235 121.5,153C 122.488,150.833 123.821,149 125.5,147.5 Z M 117.5,143.5 C 120.951,146.089 120.451,148.422 116,150.5C 115.391,147.935 115.891,145.601 117.5,143.5 Z M 109.5,167.5 C 107.901,167.768 106.568,167.434 105.5,166.5C 107.136,165.251 108.303,163.584 109,161.5C 109.495,163.473 109.662,165.473 109.5,167.5 Z M 125.5,165.5 C 126.376,165.369 127.043,165.702 127.5,166.5C 126.639,168.911 125.306,170.911 123.5,172.5C 124.167,170.167 124.833,167.833 125.5,165.5 Z M 123.5,172.5 C 123.702,174.989 123.202,177.323 122,179.5C 121.725,176.942 122.225,174.608 123.5,172.5 Z M 146.5,180.5 C 147.239,180.369 147.906,180.536 148.5,181C 147.671,182.816 146.837,184.649 146,186.5C 145.5,186 145,185.5 144.5,185C 145.267,183.53 145.933,182.03 146.5,180.5 Z M 70.5,188.5 C 72.9732,188.947 73.1399,189.947 71,191.5C 70.5172,190.552 70.3505,189.552 70.5,188.5 Z M 134.5,196.5 C 137.548,196.494 138.048,197.494 136,199.5C 134.601,198.773 133.101,198.273 131.5,198C 132.737,197.768 133.737,197.268 134.5,196.5 Z M 122.5,205.5 C 123.478,205.811 124.145,206.478 124.5,207.5C 123.846,209.115 123.346,210.782 123,212.5C 122.503,210.19 122.337,207.857 122.5,205.5 Z M 129.5,219.5 C 130.219,221.091 131.219,222.591 132.5,224C 131.584,224.374 130.75,224.874 130,225.5C 128.759,223.452 128.592,221.452 129.5,219.5 Z M 129.5,228.5 C 130.703,229.943 131.203,231.609 131,233.5C 129.731,232.095 129.231,230.429 129.5,228.5 Z M 152.5,228.5 C 153.451,229.919 153.784,231.585 153.5,233.5C 152.325,233.281 151.325,233.614 150.5,234.5C 151.326,235.451 151.492,236.451 151,237.5C 149.477,235.431 148.643,233.097 148.5,230.5C 150.38,230.771 151.713,230.104 152.5,228.5 Z M 392.5,232.5 C 396,232.495 397.5,234.162 397,237.5C 395.242,235.917 393.742,234.25 392.5,232.5 Z M 392.5,239.5 C 392.167,239.5 391.833,239.5 391.5,239.5C 390.537,238.637 390.537,237.97 391.5,237.5C 392.298,237.957 392.631,238.624 392.5,239.5 Z M 184.5,245.5 C 184.586,246.496 184.252,247.329 183.5,248C 177.675,248.524 174.508,245.691 174,239.5C 173.202,237.741 173.369,236.074 174.5,234.5C 179.738,231.354 182.405,233.021 182.5,239.5C 182.278,241.055 181.611,242.389 180.5,243.5C 181.577,244.705 182.91,245.372 184.5,245.5 Z M 399.5,245.5 C 399.263,246.791 399.596,247.791 400.5,248.5C 400.631,249.376 400.298,250.043 399.5,250.5C 398.212,248.701 398.212,247.035 399.5,245.5 Z M 70.5,246.5 C 72.3442,247.204 72.8442,248.537 72,250.5C 70.8118,249.437 70.3118,248.103 70.5,246.5 Z M 379.5,248.5 C 379.56,247.957 379.893,247.624 380.5,247.5C 382.912,248.577 385.246,249.744 387.5,251C 385.36,251.973 383.693,253.473 382.5,255.5C 381.641,253 380.641,250.667 379.5,248.5 Z M 356.5,249.5 C 357.713,250.497 357.546,251.497 356,252.5C 355.53,251.423 355.697,250.423 356.5,249.5 Z M 181.5,253.5 C 184.471,252.576 187.138,253.242 189.5,255.5C 187.253,256.245 185.42,257.578 184,259.5C 182.337,257.842 181.504,255.842 181.5,253.5 Z M 189.5,265.5 C 190.289,265.783 190.956,266.283 191.5,267C 190.184,267.528 189.517,267.028 189.5,265.5 Z M 201.5,277.5 C 194.007,274.854 193.341,271.521 199.5,267.5C 202.396,270.413 203.063,273.746 201.5,277.5 Z M 67.5,278.5 C 69.2274,280.516 70.0608,282.849 70,285.5C 68.6043,283.473 66.9376,283.14 65,284.5C 64.3076,283.975 63.8076,283.308 63.5,282.5C 65.188,281.479 66.5213,280.145 67.5,278.5 Z M 66.5,289.5 C 68.2252,289.843 68.7252,290.843 68,292.5C 66.9614,291.756 66.4614,290.756 66.5,289.5 Z M 60.5,294.5 C 61.8221,294.33 62.9887,294.663 64,295.5C 64.2477,306.995 63.081,306.661 60.5,294.5 Z M 75.5,322.5 C 78.867,323.001 79.2004,324.168 76.5,326C 77.2913,327.101 77.2913,327.934 76.5,328.5C 74.4537,326.719 74.1204,324.719 75.5,322.5 Z M 70.5,334.5 C 72.332,335.14 72.6653,336.14 71.5,337.5C 70.6143,336.675 70.281,335.675 70.5,334.5 Z M 376.5,403.5 C 376.027,404.906 375.027,405.573 373.5,405.5C 373.973,404.094 374.973,403.427 376.5,403.5 Z M 373.5,405.5 C 371.704,407.9 369.37,409.567 366.5,410.5C 368.296,408.1 370.63,406.433 373.5,405.5 Z M 363.5,412.5 C 363.027,413.906 362.027,414.573 360.5,414.5C 360.973,413.094 361.973,412.427 363.5,412.5 Z M 189.5,430.5 C 192.52,429.528 195.52,430.028 198.5,432C 195.406,432.251 192.406,431.751 189.5,430.5 Z"/></g>
<g><path style="opacity:1" fill="#2e7538" d="M 194.5,141.5 C 195.234,140.292 195.567,138.959 195.5,137.5C 197.554,137.635 199.221,136.968 200.5,135.5C 201.404,134.791 201.737,133.791 201.5,132.5C 202.822,132.33 203.989,132.663 205,133.5C 205.909,129.049 208.409,127.383 212.5,128.5C 213.845,127.653 214.845,126.487 215.5,125C 218.099,124.231 220.599,124.398 223,125.5C 223.667,126.167 223.667,126.833 223,127.5C 221.581,128.46 220.081,129.293 218.5,130C 219.563,131.188 220.897,131.688 222.5,131.5C 222.684,134.321 221.351,135.988 218.5,136.5C 215.829,133.961 212.662,132.295 209,131.5C 208.333,132.833 207.667,134.167 207,135.5C 206.667,135.167 206.333,134.833 206,134.5C 204.019,137.625 201.519,140.459 198.5,143C 196.807,143.484 195.473,142.984 194.5,141.5 Z"/></g>
<g><path style="opacity:1" fill="#f63633" d="M 190.5,144.5 C 189.167,145.5 187.833,146.5 186.5,147.5C 183.796,147.67 182.129,149.003 181.5,151.5C 181.167,151.5 180.833,151.5 180.5,151.5C 179.566,152.568 179.232,153.901 179.5,155.5C 180.5,155.5 181.5,155.5 182.5,155.5C 186.593,159.929 191.259,163.596 196.5,166.5C 196.5,167.167 196.5,167.833 196.5,168.5C 195.542,168.047 194.708,167.381 194,166.5C 193.667,166.833 193.333,167.167 193,167.5C 191.458,165.696 189.791,164.029 188,162.5C 187.316,163.784 187.483,164.951 188.5,166C 183.387,168.172 182.387,166.839 185.5,162C 185.333,161.167 185.167,160.333 185,159.5C 183.307,158.816 181.807,157.816 180.5,156.5C 179.914,156.709 179.414,157.043 179,157.5C 178.667,154.5 178.333,151.5 178,148.5C 177.075,147.953 176.242,147.287 175.5,146.5C 177.197,145.636 178.363,144.303 179,142.5C 179.925,143.047 180.758,143.713 181.5,144.5C 180.674,145.451 180.508,146.451 181,147.5C 182.594,146.284 184.094,144.951 185.5,143.5C 186.086,143.709 186.586,144.043 187,144.5C 186.32,142.874 185.32,141.207 184,139.5C 180.846,140.088 177.346,140.588 173.5,141C 170.6,143.397 168.267,146.23 166.5,149.5C 164.067,150.023 162.067,151.19 160.5,153C 163.259,155.613 166.259,158.779 169.5,162.5C 168.833,162.5 168.167,162.5 167.5,162.5C 166.833,161.167 165.833,160.167 164.5,159.5C 163.232,157.953 161.565,156.953 159.5,156.5C 159.5,156.167 159.5,155.833 159.5,155.5C 159.025,152.918 159.692,150.918 161.5,149.5C 164.427,148.243 166.761,146.243 168.5,143.5C 168.5,143.167 168.5,142.833 168.5,142.5C 176.549,136.106 184.549,129.772 192.5,123.5C 194.435,122.85 196.435,122.517 198.5,122.5C 198.5,127.167 198.5,131.833 198.5,136.5C 196.179,136.229 194.179,136.896 192.5,138.5C 191.644,134.919 190.644,134.753 189.5,138C 190.287,140.099 190.62,142.266 190.5,144.5 Z"/></g>
<g><path style="opacity:1" fill="#2e713e" d="M 379.5,128.5 C 384.204,131.795 386.537,136.128 386.5,141.5C 382.844,137.853 380.51,133.519 379.5,128.5 Z"/></g>
<g><path style="opacity:1" fill="#dc473a" d="M 194.5,120.5 C 195.5,120.5 196.5,120.5 197.5,120.5C 198.5,121.167 199.5,121.833 200.5,122.5C 200.044,126.989 200.044,131.322 200.5,135.5C 199.221,136.968 197.554,137.635 195.5,137.5C 195.567,138.959 195.234,140.292 194.5,141.5C 193.167,142.5 191.833,143.5 190.5,144.5C 190.62,142.266 190.287,140.099 189.5,138C 190.644,134.753 191.644,134.919 192.5,138.5C 194.179,136.896 196.179,136.229 198.5,136.5C 198.5,131.833 198.5,127.167 198.5,122.5C 196.435,122.517 194.435,122.85 192.5,123.5C 192.833,122.833 193.167,122.167 193.5,121.5C 194.167,121.5 194.5,121.167 194.5,120.5 Z"/></g>
<g><path style="opacity:1" fill="#327041" d="M 413.5,131.5 C 416.044,132.708 417.378,134.708 417.5,137.5C 415.408,137.439 413.908,136.439 413,134.5C 412.53,133.423 412.697,132.423 413.5,131.5 Z"/></g>
<g><path style="opacity:1" fill="#f93432" d="M 304.5,183.5 C 302.833,183.5 301.167,183.5 299.5,183.5C 299.137,181.089 300.137,179.589 302.5,179C 297.819,177.999 297.485,176.333 301.5,174C 301.167,173.667 300.833,173.333 300.5,173C 302.868,171.18 304.201,169.013 304.5,166.5C 309.298,162.203 313.965,157.703 318.5,153C 312.657,147.158 306.49,141.658 300,136.5C 297.591,131.498 297.424,126.331 299.5,121C 302.212,120.262 304.545,120.929 306.5,123C 314.877,130.379 323.544,137.379 332.5,144C 335.62,146.446 337.954,149.446 339.5,153C 335.973,157.537 331.973,161.87 327.5,166C 322.992,167.247 319.659,169.914 317.5,174C 312.99,177.023 308.656,180.189 304.5,183.5 Z"/></g>
<g><path style="opacity:1" fill="#377240" d="M 406.5,134.5 C 407.822,134.33 408.989,134.663 410,135.5C 411.363,141.167 410.363,142.167 407,138.5C 406.51,137.207 406.343,135.873 406.5,134.5 Z"/></g>
<g><path style="opacity:1" fill="#247530" d="M 60.5,129.5 C 61.6491,129.791 62.3158,130.624 62.5,132C 61.6349,139.76 59.3016,146.926 55.5,153.5C 53.4042,152.408 52.0708,150.741 51.5,148.5C 53.0329,144.568 54.3662,140.568 55.5,136.5C 57.9,134.704 59.5667,132.37 60.5,129.5 Z"/></g>
<g><path style="opacity:1" fill="#f83534" d="M 279.5,111.5 C 265.468,136.897 251.968,162.564 239,188.5C 236.83,193.843 232.996,197.176 227.5,198.5C 221.988,198.995 219.822,196.661 221,191.5C 223.414,188.185 225.081,184.518 226,180.5C 227.167,179.333 228.333,178.167 229.5,177C 228.465,175.493 228.632,173.993 230,172.5C 231.29,170.208 232.957,168.208 235,166.5C 243.906,147.491 253.739,129.158 264.5,111.5C 265.627,110.878 266.627,110.045 267.5,109C 271.486,108.501 275.486,108.334 279.5,108.5C 279.5,109.5 279.5,110.5 279.5,111.5 Z"/></g>
<g><path style="opacity:1" fill="#3e6543" d="M 331.5,137.5 C 335.08,139.408 338.08,142.074 340.5,145.5C 340.167,145.833 339.833,146.167 339.5,146.5C 335.311,144.656 332.645,141.656 331.5,137.5 Z"/></g>
<g><path style="opacity:1" fill="#fd3130" d="M 196.5,168.5 C 198.481,173.25 198.981,178.25 198,183.5C 197.691,182.234 197.191,181.067 196.5,180C 193.025,179.089 189.692,177.922 186.5,176.5C 186.649,175.448 186.483,174.448 186,173.5C 182.757,170.057 178.924,167.391 174.5,165.5C 173.625,163.227 171.958,162.227 169.5,162.5C 166.259,158.779 163.259,155.613 160.5,153C 162.067,151.19 164.067,150.023 166.5,149.5C 168.267,146.23 170.6,143.397 173.5,141C 177.346,140.588 180.846,140.088 184,139.5C 185.32,141.207 186.32,142.874 187,144.5C 186.586,144.043 186.086,143.709 185.5,143.5C 184.094,144.951 182.594,146.284 181,147.5C 180.508,146.451 180.674,145.451 181.5,144.5C 180.758,143.713 179.925,143.047 179,142.5C 178.363,144.303 177.197,145.636 175.5,146.5C 176.242,147.287 177.075,147.953 178,148.5C 178.333,151.5 178.667,154.5 179,157.5C 179.414,157.043 179.914,156.709 180.5,156.5C 181.807,157.816 183.307,158.816 185,159.5C 185.167,160.333 185.333,161.167 185.5,162C 182.387,166.839 183.387,168.172 188.5,166C 187.483,164.951 187.316,163.784 188,162.5C 189.791,164.029 191.458,165.696 193,167.5C 193.333,167.167 193.667,166.833 194,166.5C 194.708,167.381 195.542,168.047 196.5,168.5 Z"/></g>
<g><path style="opacity:1" fill="#3c7149" d="M 203.5,142.5 C 205.549,142.706 205.883,143.539 204.5,145C 202.854,146.401 201.187,146.568 199.5,145.5C 200.624,144.141 201.958,143.141 203.5,142.5 Z"/></g>
<g><path style="opacity:0.894" fill="#2e713d" d="M 155.5,138.5 C 158.966,139.109 159.966,140.942 158.5,144C 157.552,144.483 156.552,144.649 155.5,144.5C 155.425,147.206 155.092,149.873 154.5,152.5C 153.127,152.657 151.793,152.49 150.5,152C 151.596,147.575 153.263,143.075 155.5,138.5 Z"/></g>
<g><path style="opacity:0.497" fill="#396b45" d="M 379.5,143.5 C 382.955,144.128 384.122,146.128 383,149.5C 380.735,148.084 379.569,146.084 379.5,143.5 Z"/></g>
<g><path style="opacity:1" fill="#b55a3c" d="M 167.5,143.5 C 167.833,143.5 168.167,143.5 168.5,143.5C 166.761,146.243 164.427,148.243 161.5,149.5C 163.167,147.167 165.167,145.167 167.5,143.5 Z"/></g>
<g><path style="opacity:0.898" fill="#2f7245" d="M 389.5,147.5 C 393.252,147.501 394.252,149.167 392.5,152.5C 390.738,151.312 389.738,149.645 389.5,147.5 Z"/></g>
<g><path style="opacity:0.675" fill="#916239" d="M 186.5,147.5 C 187.167,147.5 187.5,147.833 187.5,148.5C 185.216,148.975 183.216,149.975 181.5,151.5C 182.129,149.003 183.796,147.67 186.5,147.5 Z"/></g>
<g><path style="opacity:0.769" fill="#237530" d="M 75.5,140.5 C 75.826,146.754 73.6593,151.754 69,155.5C 68.9428,158.851 68.1094,161.851 66.5,164.5C 67.4492,161.792 67.4492,159.126 66.5,156.5C 64.9385,159.963 64.1051,163.63 64,167.5C 62.2791,171.466 60.6124,171.466 59,167.5C 58.5,168.5 58,169.5 57.5,170.5C 58.8333,173.833 60.1667,177.167 61.5,180.5C 59.4818,183.74 58.1485,187.24 57.5,191C 58.419,195.781 58.7523,200.615 58.5,205.5C 55.9246,210.179 52.4246,210.846 48,207.5C 47.3333,203.5 47.3333,199.5 48,195.5C 49.8886,185.47 51.5553,175.47 53,165.5C 52.1437,168.188 50.3104,169.854 47.5,170.5C 48.2458,171.736 48.5792,173.07 48.5,174.5C 45.512,174.845 44.1787,173.512 44.5,170.5C 44.6074,167.719 45.9407,165.719 48.5,164.5C 46.2788,159.086 47.9455,156.253 53.5,156C 54.2638,158.069 54.7638,160.236 55,162.5C 59.5014,158.568 61.8347,153.568 62,147.5C 62.5613,146.978 63.228,146.645 64,146.5C 66.212,148.548 68.212,150.881 70,153.5C 71.115,150.845 71.7816,148.179 72,145.5C 67.6998,148.571 66.1998,147.571 67.5,142.5C 64.9851,141.8 64.3184,140.467 65.5,138.5C 70.3566,137.167 72.8566,139.167 73,144.5C 73.6082,142.934 74.4415,141.6 75.5,140.5 Z"/></g>
<g><path style="opacity:1" fill="#2d722a" d="M 187.5,148.5 C 187.5,148.833 187.5,149.167 187.5,149.5C 188.509,150.939 188.176,152.272 186.5,153.5C 184.591,154.348 182.591,154.682 180.5,154.5C 180.5,153.5 180.5,152.5 180.5,151.5C 180.833,151.5 181.167,151.5 181.5,151.5C 183.216,149.975 185.216,148.975 187.5,148.5 Z"/></g>
<g><path style="opacity:0.451" fill="#496d41" d="M 187.5,149.5 C 188.5,149.5 189.5,149.5 190.5,149.5C 190.52,151.143 189.853,152.476 188.5,153.5C 188.833,154.167 189.167,154.833 189.5,155.5C 187.229,156.363 184.895,156.363 182.5,155.5C 181.5,155.5 180.5,155.5 179.5,155.5C 179.232,153.901 179.566,152.568 180.5,151.5C 180.5,152.5 180.5,153.5 180.5,154.5C 182.591,154.682 184.591,154.348 186.5,153.5C 188.176,152.272 188.509,150.939 187.5,149.5 Z"/></g>
<g><path style="opacity:0.708" fill="#3a6145" d="M 192.5,152.5 C 195.275,152.834 195.941,154.167 194.5,156.5C 192.889,155.68 192.222,154.346 192.5,152.5 Z"/></g>
<g><path style="opacity:1" fill="#327035" d="M 205.5,113.5 C 201.656,115.587 197.989,117.92 194.5,120.5C 193.833,120.5 193.5,120.833 193.5,121.5C 183.862,126.837 175.529,133.837 168.5,142.5C 167.833,142.5 167.5,142.833 167.5,143.5C 165.167,145.167 163.167,147.167 161.5,149.5C 159.692,150.918 159.025,152.918 159.5,155.5C 158.167,155.833 158.167,156.167 159.5,156.5C 161.565,156.953 163.232,157.953 164.5,159.5C 163.272,160.306 162.272,161.306 161.5,162.5C 161.5,161.167 161.5,159.833 161.5,158.5C 160.167,158.5 158.833,158.5 157.5,158.5C 156.833,158.5 156.5,158.833 156.5,159.5C 154.142,159.253 152.142,159.919 150.5,161.5C 163.78,135.867 183.78,118.2 210.5,108.5C 210.5,107.5 210.5,106.5 210.5,105.5C 213.565,106.422 216.565,106.756 219.5,106.5C 214.89,109.134 210.223,111.467 205.5,113.5 Z"/></g>
<g><path style="opacity:1" fill="#267531" d="M 202.5,180.5 C 201.982,177.021 200.982,173.688 199.5,170.5C 197.896,169.713 197.229,168.38 197.5,166.5C 204.675,159.161 212.341,152.328 220.5,146C 223.991,144.63 227.325,143.13 230.5,141.5C 229.694,145.274 227.361,147.774 223.5,149C 216.189,156.336 217.023,157.836 226,153.5C 227.578,154.711 227.745,156.045 226.5,157.5C 217.107,163.897 209.107,171.563 202.5,180.5 Z"/></g>
<g><path style="opacity:1" fill="#257432" d="M 181.5,111.5 C 181.013,110.527 180.513,109.527 180,108.5C 175.145,112.165 170.645,116.165 166.5,120.5C 165.833,120.5 165.5,120.833 165.5,121.5C 164.833,121.5 164.5,121.833 164.5,122.5C 160.972,125.098 157.639,127.932 154.5,131C 155.574,131.739 156.241,132.739 156.5,134C 154.7,137.791 152.2,140.957 149,143.5C 145.544,142.42 143.377,143.753 142.5,147.5C 143.82,146.058 145.486,145.392 147.5,145.5C 145.725,150.056 144.225,154.723 143,159.5C 142.333,161.5 141,162.833 139,163.5C 139.142,169.657 136.642,174.324 131.5,177.5C 132.711,178.874 133.711,180.374 134.5,182C 133.048,183.565 131.381,184.898 129.5,186C 130.406,187.699 130.739,189.533 130.5,191.5C 128.248,191.084 126.748,189.751 126,187.5C 123.955,189.043 122.455,188.71 121.5,186.5C 122.833,186.167 122.833,185.833 121.5,185.5C 121.5,184.167 121.5,182.833 121.5,181.5C 122.833,181.167 122.833,180.833 121.5,180.5C 120.734,176.181 120.734,171.848 121.5,167.5C 121.808,166.692 122.308,166.025 123,165.5C 123.77,166.598 124.603,166.598 125.5,165.5C 125.821,163.952 126.821,163.285 128.5,163.5C 128.343,164.873 128.51,166.207 129,167.5C 131.003,165.915 132.503,163.915 133.5,161.5C 132.612,159.845 132.112,158.178 132,156.5C 134.265,157.916 135.431,159.916 135.5,162.5C 137.484,162.617 139.15,161.95 140.5,160.5C 140.291,159.914 139.957,159.414 139.5,159C 142.041,157.152 143.041,154.652 142.5,151.5C 139.745,151.037 138.078,149.37 137.5,146.5C 136.833,146.5 136.5,146.167 136.5,145.5C 135.208,143.745 134.208,141.745 133.5,139.5C 129.178,142.811 127.011,147.144 127,152.5C 129.312,152.045 131.312,151.045 133,149.5C 133.464,150.094 133.631,150.761 133.5,151.5C 133.5,151.833 133.5,152.167 133.5,152.5C 133.607,154.379 133.107,154.712 132,153.5C 131.411,155.863 129.911,156.863 127.5,156.5C 127.728,154.645 127.061,153.812 125.5,154C 124,156.833 122.5,159.667 121,162.5C 120.329,163.252 119.496,163.586 118.5,163.5C 118.5,164.167 118.167,164.5 117.5,164.5C 116.833,164.5 116.5,164.833 116.5,165.5C 115.674,164.987 115.008,163.653 114.5,161.5C 112.894,163.512 111.727,165.845 111,168.5C 110.617,167.944 110.117,167.611 109.5,167.5C 109.662,165.473 109.495,163.473 109,161.5C 108.303,163.584 107.136,165.251 105.5,166.5C 105.382,162.305 106.215,158.305 108,154.5C 109.699,153.594 111.533,153.261 113.5,153.5C 112.928,151.021 112.928,148.687 113.5,146.5C 112.963,145.259 112.296,144.092 111.5,143C 111.833,142.5 112.167,142 112.5,141.5C 113.5,142.167 114.5,142.833 115.5,143.5C 116.318,141.892 116.985,140.225 117.5,138.5C 117.957,137.702 118.624,137.369 119.5,137.5C 118.068,139.799 118.734,141.465 121.5,142.5C 125.655,136.871 129.821,131.205 134,125.5C 134.18,123.512 134.014,121.512 133.5,119.5C 135.989,119.702 138.323,119.202 140.5,118C 148.788,106.697 159.121,98.0304 171.5,92C 172.635,91.2506 173.635,91.4173 174.5,92.5C 158.591,102.908 145.091,115.908 134,131.5C 131.4,135.367 129.4,139.367 128,143.5C 135.084,133.745 142.917,124.578 151.5,116C 154.692,113.308 158.025,110.808 161.5,108.5C 161.833,109 162.167,109.5 162.5,110C 154.308,118.524 146.475,127.358 139,136.5C 136.302,138.911 135.968,141.577 138,144.5C 156.319,117.524 180.985,98.8568 212,88.5C 214.163,89.6405 216.496,90.3072 219,90.5C 221.034,90.6464 222.701,89.9797 224,88.5C 224.692,89.0253 225.192,89.6919 225.5,90.5C 224.153,94.1096 224.82,94.4429 227.5,91.5C 228.962,92.4709 230.295,92.1376 231.5,90.5C 230.071,88.6687 229.571,86.6687 230,84.5C 233.525,82.8097 236.525,83.4764 239,86.5C 239.265,88.1626 238.765,89.6626 237.5,91C 237.833,91.3333 238.167,91.6667 238.5,92C 241.082,91.7446 243.748,91.578 246.5,91.5C 246.64,93.1238 245.973,94.2904 244.5,95C 242.167,95.6667 239.833,95.6667 237.5,95C 236.333,94.5 235.5,93.6667 235,92.5C 233.757,94.8329 232.091,95.4996 230,94.5C 227.508,96.4971 224.675,97.4971 221.5,97.5C 221.649,96.448 221.483,95.448 221,94.5C 219.833,96.1667 218.667,97.8333 217.5,99.5C 215.219,100.277 213.052,101.277 211,102.5C 210.044,101.421 209.211,100.255 208.5,99C 207.5,98.3333 206.5,98.3333 205.5,99C 207.359,102.681 206.192,104.848 202,105.5C 199.898,104.962 199.065,103.962 199.5,102.5C 194.491,104.35 190.158,107.183 186.5,111C 184.866,111.494 183.199,111.66 181.5,111.5 Z M 118.5,162.5 C 120.099,161.201 120.599,159.535 120,157.5C 118.991,159.025 118.491,160.692 118.5,162.5 Z M 111.5,154.5 C 108.451,161.875 109.451,162.375 114.5,156C 113.473,155.487 112.473,154.987 111.5,154.5 Z M 142.5,147.5 C 142.539,148.756 142.039,149.756 141,150.5C 140.415,149.002 140.915,148.002 142.5,147.5 Z M 125.5,147.5 C 123.821,149 122.488,150.833 121.5,153C 123.844,152.235 125.177,150.402 125.5,147.5 Z M 117.5,143.5 C 115.891,145.601 115.391,147.935 116,150.5C 120.451,148.422 120.951,146.089 117.5,143.5 Z M 199.5,97.5 C 198.537,98.3635 198.537,99.0302 199.5,99.5C 201.975,98.4134 201.975,97.7467 199.5,97.5 Z M 125.5,165.5 C 126.376,165.369 127.043,165.702 127.5,166.5C 126.639,168.911 125.306,170.911 123.5,172.5C 124.167,170.167 124.833,167.833 125.5,165.5 Z M 123.5,172.5 C 122.225,174.608 121.725,176.942 122,179.5C 123.202,177.323 123.702,174.989 123.5,172.5 Z"/></g>
<g><path style="opacity:0.875" fill="#377440" d="M 173.5,97.5 C 175.429,97.2308 177.095,97.7308 178.5,99C 176.249,101.586 173.582,102.42 170.5,101.5C 171.524,100.148 172.524,98.8149 173.5,97.5 Z"/></g>
<g><path style="opacity:1" fill="#2e7031" d="M 167.5,162.5 C 168.167,162.5 168.833,162.5 169.5,162.5C 172.053,164.597 174.386,166.93 176.5,169.5C 173.535,172.695 170.201,172.695 166.5,169.5C 166.024,172.119 164.691,174.119 162.5,175.5C 161.206,170.052 162.873,165.718 167.5,162.5 Z"/></g>
<g><path style="opacity:1" fill="#ea3f41" d="M 304.5,166.5 C 304.201,169.013 302.868,171.18 300.5,173C 300.833,173.333 301.167,173.667 301.5,174C 297.485,176.333 297.819,177.999 302.5,179C 300.137,179.589 299.137,181.089 299.5,183.5C 301.167,183.5 302.833,183.5 304.5,183.5C 299.56,186.685 297.226,185.185 297.5,179C 297.741,175.793 298.241,172.626 299,169.5C 300.488,167.84 302.321,166.84 304.5,166.5 Z"/></g>
<g><path style="opacity:1" fill="#dd4237" d="M 169.5,162.5 C 171.958,162.227 173.625,163.227 174.5,165.5C 178.924,167.391 182.757,170.057 186,173.5C 186.483,174.448 186.649,175.448 186.5,176.5C 189.692,177.922 193.025,179.089 196.5,180C 197.191,181.067 197.691,182.234 198,183.5C 198.981,178.25 198.481,173.25 196.5,168.5C 196.5,167.833 196.5,167.167 196.5,166.5C 196.833,166.5 197.167,166.5 197.5,166.5C 197.229,168.38 197.896,169.713 199.5,170.5C 199.892,174.582 200.558,178.582 201.5,182.5C 200.833,183.5 200.167,184.5 199.5,185.5C 196.86,184.552 194.193,183.552 191.5,182.5C 190.147,180.817 188.48,179.484 186.5,178.5C 183.192,175.529 179.859,172.529 176.5,169.5C 174.386,166.93 172.053,164.597 169.5,162.5 Z"/></g>
<g><path style="opacity:1" fill="#625a27" d="M 199.5,170.5 C 200.982,173.688 201.982,177.021 202.5,180.5C 202.672,181.492 202.338,182.158 201.5,182.5C 200.558,178.582 199.892,174.582 199.5,170.5 Z"/></g>
<g><path style="opacity:0.988" fill="#307139" d="M 158.5,180.5 C 159.995,180.415 160.995,181.081 161.5,182.5C 160.518,185.096 159.851,187.762 159.5,190.5C 157.654,190.778 156.32,190.111 155.5,188.5C 156.199,185.69 157.199,183.023 158.5,180.5 Z"/></g>
<g><path style="opacity:0.173" fill="#416f4c" d="M 170.5,188.5 C 172.176,189.183 172.843,190.517 172.5,192.5C 171.5,192.5 170.5,192.5 169.5,192.5C 169.433,191.041 169.766,189.708 170.5,188.5 Z"/></g>
<g><path style="opacity:1" fill="#1c782a" d="M 191.5,182.5 C 194.193,183.552 196.86,184.552 199.5,185.5C 197.192,189.778 195.192,194.111 193.5,198.5C 192.5,198.5 191.5,198.5 190.5,198.5C 190.354,206.874 189.688,215.207 188.5,223.5C 186.404,224.62 186.07,226.12 187.5,228C 186.833,229 186.167,230 185.5,231C 187.677,232.202 190.011,232.702 192.5,232.5C 192.433,234.401 192.767,236.234 193.5,238C 192.884,240.359 191.384,241.859 189,242.5C 188.517,243.448 188.351,244.448 188.5,245.5C 187.167,245.5 185.833,245.5 184.5,245.5C 184.373,240.949 184.206,236.282 184,231.5C 181.797,229.331 180.964,226.665 181.5,223.5C 183.635,223.853 184.968,223.02 185.5,221C 183.211,218.018 182.544,214.851 183.5,211.5C 182.178,211.33 181.011,211.663 180,212.5C 180.835,205.157 182.001,197.824 183.5,190.5C 184.93,190.421 186.264,190.754 187.5,191.5C 187.833,191.167 188.167,190.833 188.5,190.5C 187.675,189.614 186.675,189.281 185.5,189.5C 185.427,185.28 187.427,182.946 191.5,182.5 Z"/></g>
<g><path style="opacity:0.278" fill="#326d41" d="M 397.5,190.5 C 398.931,190.881 399.764,191.881 400,193.5C 400.667,195.833 400.667,198.167 400,200.5C 398.241,197.392 397.408,194.059 397.5,190.5 Z"/></g>
<g><path style="opacity:0.6" fill="#336c3a" d="M 34.5,200.5 C 36.2517,200.418 37.2517,201.251 37.5,203C 37.0158,205.475 35.6825,207.308 33.5,208.5C 32.267,205.658 32.6003,202.992 34.5,200.5 Z"/></g>
<g><path style="opacity:1" fill="#277335" d="M 417.5,202.5 C 419.017,202.511 420.184,203.177 421,204.5C 422.892,210.177 422.892,215.843 421,221.5C 420.586,221.957 420.086,222.291 419.5,222.5C 416.091,217.825 415.757,212.992 418.5,208C 417.225,206.092 416.892,204.259 417.5,202.5 Z"/></g>
<g><path style="opacity:1" fill="#257533" d="M 169.5,221.5 C 168.178,221.67 167.011,221.337 166,220.5C 164.306,218.76 163.139,216.76 162.5,214.5C 163.263,213.732 164.263,213.232 165.5,213C 163.934,212.235 162.601,212.402 161.5,213.5C 159.313,214.049 158.646,215.215 159.5,217C 158.534,218.678 157.201,219.345 155.5,219C 153.999,213.597 151.999,208.431 149.5,203.5C 150.496,203.414 151.329,203.748 152,204.5C 151.946,201.809 153.113,199.976 155.5,199C 153.986,197.561 153.653,196.061 154.5,194.5C 156.396,193.534 158.396,193.201 160.5,193.5C 161.429,189.873 162.263,186.207 163,182.5C 165.296,179.774 167.129,176.774 168.5,173.5C 170.495,176.389 173.162,178.389 176.5,179.5C 175.271,180.281 173.938,180.781 172.5,181C 174.155,182.444 174.822,184.278 174.5,186.5C 172.179,186.229 170.179,186.896 168.5,188.5C 167.833,188.167 167.167,187.833 166.5,187.5C 165.308,189.742 164.308,192.075 163.5,194.5C 165.382,194.155 167.382,194.655 169.5,196C 170.068,198.684 171.068,201.184 172.5,203.5C 171.15,205.386 169.483,206.886 167.5,208C 167.389,210.529 167.889,212.696 169,214.5C 167.601,215.227 166.101,215.727 164.5,216C 168.459,215.791 170.126,217.625 169.5,221.5 Z M 156.5,215.5 C 156.5,211.5 156.5,207.5 156.5,203.5C 158.92,203.708 161.253,203.374 163.5,202.5C 164.308,202.808 164.975,203.308 165.5,204C 160.761,206.561 157.761,210.394 156.5,215.5 Z M 162.5,214.5 C 161.833,214.5 161.5,214.167 161.5,213.5C 162.601,212.402 163.934,212.235 165.5,213C 164.263,213.232 163.263,213.732 162.5,214.5 Z"/></g>
<g><path style="opacity:1" fill="#297437" d="M 39.5,214.5 C 43.7554,214.923 45.5887,217.256 45,221.5C 44.0475,223.592 42.7141,223.925 41,222.5C 40.433,219.832 39.933,217.166 39.5,214.5 Z"/></g>
<g><path style="opacity:1" fill="#237331" d="M 402.5,244.5 C 401.4,245.605 400.733,246.938 400.5,248.5C 399.596,247.791 399.263,246.791 399.5,245.5C 400.234,244.292 400.567,242.959 400.5,241.5C 398.302,240.986 396.302,239.986 394.5,238.5C 393.817,238.863 393.15,239.196 392.5,239.5C 392.631,238.624 392.298,237.957 391.5,237.5C 390.537,237.97 390.537,238.637 391.5,239.5C 390.761,239.369 390.094,239.536 389.5,240C 390.574,240.739 391.241,241.739 391.5,243C 390.491,244.168 389.491,245.335 388.5,246.5C 389.548,248.456 390.048,250.456 390,252.5C 386.933,255.091 383.433,256.424 379.5,256.5C 379.155,251.122 378.488,245.789 377.5,240.5C 375.571,240.231 373.905,240.731 372.5,242C 372.164,245.696 372.831,249.363 374.5,253C 373.692,254.706 372.359,255.539 370.5,255.5C 369.851,250.864 369.351,246.198 369,241.5C 368.764,243.119 367.931,244.119 366.5,244.5C 366.5,241.833 366.5,239.167 366.5,236.5C 369.329,236.369 370.662,237.369 370.5,239.5C 371.133,236.487 372.133,233.654 373.5,231C 371.611,227.476 372.611,225.643 376.5,225.5C 376.68,229.215 376.346,232.882 375.5,236.5C 375.608,237.442 375.941,238.275 376.5,239C 380.03,239.672 381.363,241.838 380.5,245.5C 384.059,245.592 387.392,244.759 390.5,243C 386.268,239.803 384.435,235.636 385,230.5C 386.994,229.721 388.828,229.387 390.5,229.5C 389.675,228.614 388.675,228.281 387.5,228.5C 386.167,226.167 386.167,223.833 387.5,221.5C 388.552,221.351 389.552,221.517 390.5,222C 392.373,224.209 394.54,226.042 397,227.5C 397.49,226.207 397.657,224.873 397.5,223.5C 400.272,223.22 402.772,223.887 405,225.5C 407.518,223.972 409.685,224.306 411.5,226.5C 409.184,227.932 406.684,228.932 404,229.5C 403.349,231.235 403.515,232.902 404.5,234.5C 401.467,237.363 400.801,240.696 402.5,244.5 Z M 392.5,232.5 C 393.742,234.25 395.242,235.917 397,237.5C 397.5,234.162 396,232.495 392.5,232.5 Z M 392.5,239.5 C 392.167,239.5 391.833,239.5 391.5,239.5C 390.537,238.637 390.537,237.97 391.5,237.5C 392.298,237.957 392.631,238.624 392.5,239.5 Z M 379.5,248.5 C 380.641,250.667 381.641,253 382.5,255.5C 383.693,253.473 385.36,251.973 387.5,251C 385.246,249.744 382.912,248.577 380.5,247.5C 379.893,247.624 379.56,247.957 379.5,248.5 Z"/></g>
<g><path style="opacity:1" fill="#217530" d="M 186.5,178.5 C 188.48,179.484 190.147,180.817 191.5,182.5C 187.427,182.946 185.427,185.28 185.5,189.5C 186.675,189.281 187.675,189.614 188.5,190.5C 188.167,190.833 187.833,191.167 187.5,191.5C 186.264,190.754 184.93,190.421 183.5,190.5C 182.001,197.824 180.835,205.157 180,212.5C 181.011,211.663 182.178,211.33 183.5,211.5C 182.544,214.851 183.211,218.018 185.5,221C 184.968,223.02 183.635,223.853 181.5,223.5C 180.964,226.665 181.797,229.331 184,231.5C 184.206,236.282 184.373,240.949 184.5,245.5C 185.833,245.5 187.167,245.5 188.5,245.5C 188.351,244.448 188.517,243.448 189,242.5C 191.384,241.859 192.884,240.359 193.5,238C 192.767,236.234 192.433,234.401 192.5,232.5C 190.011,232.702 187.677,232.202 185.5,231C 186.167,230 186.833,229 187.5,228C 186.07,226.12 186.404,224.62 188.5,223.5C 189.688,215.207 190.354,206.874 190.5,198.5C 191.5,198.5 192.5,198.5 193.5,198.5C 193.33,200.848 192.997,203.182 192.5,205.5C 192.86,207.421 193.694,209.088 195,210.5C 195.015,212.791 195.182,214.958 195.5,217C 195.029,219.098 194.029,221.265 192.5,223.5C 194.703,237.829 200.703,250.162 210.5,260.5C 209.325,260.281 208.325,260.614 207.5,261.5C 208.326,262.451 208.492,263.451 208,264.5C 204.17,263.328 202.67,260.328 203.5,255.5C 201.897,255.688 200.563,255.188 199.5,254C 200.554,252.612 200.72,251.112 200,249.5C 196.255,245.298 195.421,245.465 197.5,250C 196.167,251 196.167,252 197.5,253C 196.234,253.309 195.067,253.809 194,254.5C 194.253,251.867 194.253,249.2 194,246.5C 193.029,247.198 191.863,247.198 190.5,246.5C 187.945,246.722 186.278,248.055 185.5,250.5C 189.705,251.599 191.205,254.266 190,258.5C 187.379,259.991 184.545,260.658 181.5,260.5C 180.583,257.995 180.583,255.662 181.5,253.5C 182.058,252.21 183.058,251.377 184.5,251C 181.522,250.304 178.522,249.804 175.5,249.5C 175.565,246.514 174.398,244.18 172,242.5C 171.393,238.463 171.56,234.463 172.5,230.5C 174.833,230.5 177.167,230.5 179.5,230.5C 179.001,225.508 178.501,220.508 178,215.5C 177.25,214.874 176.416,214.374 175.5,214C 178.662,210.387 179.662,206.22 178.5,201.5C 179.956,199.199 180.289,196.865 179.5,194.5C 182.384,189.399 184.718,184.066 186.5,178.5 Z M 184.5,245.5 C 182.91,245.372 181.577,244.705 180.5,243.5C 181.611,242.389 182.278,241.055 182.5,239.5C 182.405,233.021 179.738,231.354 174.5,234.5C 173.369,236.074 173.202,237.741 174,239.5C 174.508,245.691 177.675,248.524 183.5,248C 184.252,247.329 184.586,246.496 184.5,245.5 Z M 181.5,253.5 C 181.504,255.842 182.337,257.842 184,259.5C 185.42,257.578 187.253,256.245 189.5,255.5C 187.138,253.242 184.471,252.576 181.5,253.5 Z"/></g>
<g><path style="opacity:1" fill="#267534" d="M 424.5,244.5 C 424.5,243.5 424.5,242.5 424.5,241.5C 426.591,241.318 428.591,241.652 430.5,242.5C 431.386,243.325 431.719,244.325 431.5,245.5C 429.097,245.552 426.764,245.219 424.5,244.5 Z"/></g>
<g><path style="opacity:0.975" fill="#23752f" d="M 32.5,227.5 C 33.5,227.5 34.5,227.5 35.5,227.5C 36.7528,242.35 39.0861,257.016 42.5,271.5C 40.5,271.5 38.5,271.5 36.5,271.5C 36.4511,268.626 36.7844,265.792 37.5,263C 33.7331,251.465 32.0665,239.632 32.5,227.5 Z"/></g>
<g><path style="opacity:1" fill="#1e782d" d="M 52.5,230.5 C 52.7828,229.711 53.2828,229.044 54,228.5C 54.0235,236.283 54.8568,243.95 56.5,251.5C 56.263,254.063 55.763,254.063 55,251.5C 52.7116,251.737 50.2116,251.737 47.5,251.5C 47.5,254.5 47.5,257.5 47.5,260.5C 47.5858,261.496 47.2524,262.329 46.5,263C 50.923,267.221 52.5896,272.387 51.5,278.5C 49.6096,278.703 48.1096,278.037 47,276.5C 43.5631,267.759 41.5631,258.759 41,249.5C 42.5793,247.959 44.4127,246.792 46.5,246C 43.2712,245.644 41.7712,243.81 42,240.5C 40.6667,239.833 39.6667,238.833 39,237.5C 38.5017,234.183 38.335,230.85 38.5,227.5C 40.8273,227.247 42.8273,227.914 44.5,229.5C 45.6343,232.07 46.4677,234.736 47,237.5C 49.2205,235.472 51.0539,233.139 52.5,230.5 Z"/></g>
<g><path style="opacity:1" fill="#277433" d="M 61.5,248.5 C 64.4052,249.935 65.0718,252.102 63.5,255C 66.6275,259.999 68.2942,265.499 68.5,271.5C 69.5,271.5 70.5,271.5 71.5,271.5C 71.6495,272.552 71.4828,273.552 71,274.5C 68.6494,273.286 66.1494,272.452 63.5,272C 60.853,268.995 59.0196,265.495 58,261.5C 57.2597,263.319 56.0931,264.652 54.5,265.5C 53.6288,261.979 52.7955,258.312 52,254.5C 50.9887,253.663 49.8221,253.33 48.5,253.5C 48.8016,256.059 48.4682,258.393 47.5,260.5C 47.5,257.5 47.5,254.5 47.5,251.5C 50.2116,251.737 52.7116,251.737 55,251.5C 55.763,254.063 56.263,254.063 56.5,251.5C 54.8568,243.95 54.0235,236.283 54,228.5C 53.2828,229.044 52.7828,229.711 52.5,230.5C 51.7337,228.316 51.0671,225.982 50.5,223.5C 51.2305,220.891 51.7305,218.224 52,215.5C 52.6667,214.167 53.3333,214.167 54,215.5C 54.311,222.399 55.1443,229.233 56.5,236C 55.9204,242.041 56.587,248.041 58.5,254C 58.4148,255.107 58.0814,256.107 57.5,257C 59.1012,257.273 60.6012,257.773 62,258.5C 62.3876,255.151 62.2209,251.817 61.5,248.5 Z M 62.5,259.5 C 64.2633,262.553 65.0967,265.886 65,269.5C 63.5795,267.556 62.0795,265.723 60.5,264C 61.0439,262.415 61.7106,260.915 62.5,259.5 Z"/></g>
<g><path style="opacity:1" fill="#2e7339" d="M 442.5,248.5 C 443.75,248.577 444.583,249.244 445,250.5C 445.667,254.5 445.667,258.5 445,262.5C 444.586,262.957 444.086,263.291 443.5,263.5C 441.187,258.706 440.854,253.706 442.5,248.5 Z"/></g>
<g><path style="opacity:0.059" fill="#36663c" d="M 274.5,255.5 C 275.586,255.62 276.253,256.287 276.5,257.5C 275.696,259.957 274.696,259.957 273.5,257.5C 273.863,256.817 274.196,256.15 274.5,255.5 Z"/></g>
<g><path style="opacity:1" fill="#356b45" d="M 261.5,257.5 C 268.167,258.5 268.167,259.5 261.5,260.5C 261.5,259.5 261.5,258.5 261.5,257.5 Z"/></g>
<g><path style="opacity:1" fill="#2b7137" d="M 341.5,252.5 C 338.286,253.727 335.286,255.394 332.5,257.5C 327.214,257.916 322.048,258.916 317,260.5C 313.326,258.358 309.492,258.191 305.5,260C 300.007,264.496 293.841,267.663 287,269.5C 285.97,269.164 285.47,268.497 285.5,267.5C 286.117,267.611 286.617,267.944 287,268.5C 286.737,267.049 286.904,265.716 287.5,264.5C 288.611,265.611 289.945,266.278 291.5,266.5C 296.633,263.096 301.966,259.93 307.5,257C 310.853,256.253 314.02,256.753 317,258.5C 320.232,256.634 323.566,256.3 327,257.5C 329.569,257.467 331.403,256.3 332.5,254C 335.393,252.851 338.393,252.351 341.5,252.5 Z"/></g>
<g><path style="opacity:1" fill="#385747" d="M 226.5,260.5 C 229.012,261.216 229.012,262.216 226.5,263.5C 225.438,262.575 225.438,261.575 226.5,260.5 Z"/></g>
<g><path style="opacity:0.694" fill="#306f3b" d="M 279.5,260.5 C 281.665,260.116 283.332,260.783 284.5,262.5C 282.306,263.632 279.973,264.299 277.5,264.5C 275.681,264.658 274.348,263.991 273.5,262.5C 275.631,261.831 277.631,261.165 279.5,260.5 Z"/></g>
<g><path style="opacity:1" fill="#317147" d="M 266.5,262.5 C 268.625,263.368 268.791,264.368 267,265.5C 265.317,264.824 265.15,263.824 266.5,262.5 Z"/></g>
<g><path style="opacity:0.945" fill="#306946" d="M 237.5,266.5 C 239.465,266.948 239.798,267.948 238.5,269.5C 236.481,268.867 236.147,267.867 237.5,266.5 Z"/></g>
<g><path style="opacity:1" fill="#216a2d" d="M 300.5,289.5 C 285.549,286.836 270.549,286.336 255.5,288C 254.934,288.995 254.267,289.828 253.5,290.5C 253.297,288.61 253.963,287.11 255.5,286C 261.765,285.842 267.932,285.009 274,283.5C 278.066,284.6 282.066,284.6 286,283.5C 286.692,284.025 287.192,284.692 287.5,285.5C 290.785,286.324 294.118,286.824 297.5,287C 298.942,287.377 299.942,288.21 300.5,289.5 Z"/></g>
<g><path style="opacity:1" fill="#000201" d="M 232.5,287.5 C 234.326,289.147 235.66,291.147 236.5,293.5C 236.762,314.186 236.428,334.853 235.5,355.5C 234.149,360.949 233.315,366.616 233,372.5C 229.644,375.876 227.31,379.876 226,384.5C 220.042,390.133 213.542,394.966 206.5,399C 202.833,399.667 199.167,399.667 195.5,399C 194.409,396.936 194.242,394.769 195,392.5C 204.874,386.785 210.041,378.119 210.5,366.5C 211.39,358.172 212.056,349.672 212.5,341C 212.353,324.78 212.02,308.447 211.5,292C 212.561,287.729 215.061,286.229 219,287.5C 221.092,287.121 223.092,286.454 225,285.5C 227.319,286.871 229.819,287.538 232.5,287.5 Z"/></g>
<g><path style="opacity:1" fill="#000200" d="M 300.5,289.5 C 300.833,289.5 301.167,289.5 301.5,289.5C 311.477,293.47 319.477,299.804 325.5,308.5C 327.36,314.084 329.027,319.751 330.5,325.5C 329.213,329.671 329.213,333.838 330.5,338C 329.013,342.469 327.679,346.969 326.5,351.5C 324.566,355.431 322.233,359.098 319.5,362.5C 313.488,368.179 306.488,372.346 298.5,375C 288.664,375.873 278.831,376.706 269,377.5C 264.269,376.951 259.603,376.284 255,375.5C 254.692,374.692 254.192,374.025 253.5,373.5C 253.167,368 252.833,362.5 252.5,357C 253.28,334.84 253.613,312.673 253.5,290.5C 254.267,289.828 254.934,288.995 255.5,288C 270.549,286.336 285.549,286.836 300.5,289.5 Z"/></g>
<g><path style="opacity:0.082" fill="#376b44" d="M 452.5,286.5 C 454.344,287.204 454.844,288.537 454,290.5C 453.29,291.973 452.124,292.64 450.5,292.5C 450.253,290.142 450.919,288.142 452.5,286.5 Z"/></g>
<g><path style="opacity:1" fill="#23672d" d="M 301.5,289.5 C 303.527,289.338 305.527,289.505 307.5,290C 312.784,291.705 317.45,294.372 321.5,298C 324.498,300.824 325.832,304.324 325.5,308.5C 319.477,299.804 311.477,293.47 301.5,289.5 Z"/></g>
<g><path style="opacity:1" fill="#1c772b" d="M 300.5,313.5 C 302.917,317.934 304.251,322.767 304.5,328C 304.694,337.626 303.028,346.793 299.5,355.5C 298.591,357.375 297.257,358.708 295.5,359.5C 291.478,360.081 287.811,361.414 284.5,363.5C 282.407,363.514 280.574,362.848 279,361.5C 278.285,341.488 278.451,321.488 279.5,301.5C 283.167,301.5 286.833,301.5 290.5,301.5C 291.256,303.613 291.423,305.613 291,307.5C 291.333,307.833 291.667,308.167 292,308.5C 292.026,305.895 293.193,304.729 295.5,305C 298.108,307.398 299.775,310.231 300.5,313.5 Z"/></g>
<g><path style="opacity:0.886" fill="#326839" d="M 449.5,301.5 C 450.613,302.946 450.78,304.613 450,306.5C 448.989,307.337 447.822,307.67 446.5,307.5C 446.028,304.642 447.028,302.642 449.5,301.5 Z"/></g>
<g><path style="opacity:1" fill="#21672c" d="M 232.5,287.5 C 229.819,287.538 227.319,286.871 225,285.5C 223.092,286.454 221.092,287.121 219,287.5C 215.061,286.229 212.561,287.729 211.5,292C 212.02,308.447 212.353,324.78 212.5,341C 212.056,349.672 211.39,358.172 210.5,366.5C 210.5,339.5 210.5,312.5 210.5,285.5C 207.412,285.803 205.746,284.47 205.5,281.5C 207.734,281.62 209.901,281.287 212,280.5C 214.086,280.919 215.586,282.086 216.5,284C 220.167,284.333 223.833,284.667 227.5,285C 229.653,285.099 231.319,285.933 232.5,287.5 Z"/></g>
<g><path style="opacity:1" fill="#1f5628" d="M 236.5,293.5 C 237.662,312.662 237.829,331.996 237,351.5C 236.79,353.058 236.29,354.391 235.5,355.5C 236.428,334.853 236.762,314.186 236.5,293.5 Z"/></g>
<g><path style="opacity:1" fill="#236a2f" d="M 300.5,313.5 C 299.775,310.231 298.108,307.398 295.5,305C 293.193,304.729 292.026,305.895 292,308.5C 291.667,308.167 291.333,307.833 291,307.5C 291.423,305.613 291.256,303.613 290.5,301.5C 286.833,301.5 283.167,301.5 279.5,301.5C 278.451,321.488 278.285,341.488 279,361.5C 280.574,362.848 282.407,363.514 284.5,363.5C 287.811,361.414 291.478,360.081 295.5,359.5C 291.181,365.088 285.514,366.921 278.5,365C 277.874,364.25 277.374,363.416 277,362.5C 276.579,342.767 276.412,323.1 276.5,303.5C 276.148,301.076 277.148,299.576 279.5,299C 287.655,297.16 294.155,299.66 299,306.5C 300.202,308.677 300.702,311.011 300.5,313.5 Z"/></g>
<g><path style="opacity:1" fill="#23652f" d="M 325.5,308.5 C 327.686,309.823 329.186,311.823 330,314.5C 331.536,324.782 331.87,335.115 331,345.5C 329.53,347.631 328.03,349.631 326.5,351.5C 327.679,346.969 329.013,342.469 330.5,338C 329.213,333.838 329.213,329.671 330.5,325.5C 329.027,319.751 327.36,314.084 325.5,308.5 Z"/></g>
<g><path style="opacity:1" fill="#2c6d37" d="M 424.5,356.5 C 425.675,356.281 426.675,356.614 427.5,357.5C 426.557,360.109 424.89,362.109 422.5,363.5C 421.633,360.857 422.3,358.523 424.5,356.5 Z"/></g>
<g><path style="opacity:1" fill="#21652d" d="M 253.5,290.5 C 253.613,312.673 253.28,334.84 252.5,357C 252.833,362.5 253.167,368 253.5,373.5C 254.192,374.025 254.692,374.692 255,375.5C 259.603,376.284 264.269,376.951 269,377.5C 278.831,376.706 288.664,375.873 298.5,375C 306.488,372.346 313.488,368.179 319.5,362.5C 317.888,365.538 315.888,368.371 313.5,371C 307.6,373.128 301.933,375.461 296.5,378C 281.592,378.823 266.759,378.657 252,377.5C 250.903,373.616 250.403,369.616 250.5,365.5C 251.413,342.202 251.413,318.868 250.5,295.5C 247.625,293.869 246.958,291.536 248.5,288.5C 249.799,289.09 250.632,290.09 251,291.5C 251.671,290.748 252.504,290.414 253.5,290.5 Z"/></g>
<g><path style="opacity:0.957" fill="#266f37" d="M 392.5,394.5 C 394.085,395.002 394.585,396.002 394,397.5C 392.285,400.397 389.785,401.731 386.5,401.5C 387.089,397.914 389.089,395.58 392.5,394.5 Z"/></g>
<g><path style="opacity:1" fill="#2c6f39" d="M 352.5,423.5 C 354.288,423.215 355.955,423.548 357.5,424.5C 355.092,427.549 352.092,428.549 348.5,427.5C 349.867,426.16 351.2,424.827 352.5,423.5 Z"/></g>
<g><path style="opacity:1" fill="#336b41" d="M 339.5,431.5 C 344.422,431.11 344.756,432.277 340.5,435C 334.377,435.919 334.044,434.752 339.5,431.5 Z"/></g>
<g><path style="opacity:1" fill="#2c7238" d="M 309.5,440.5 C 312.932,440.248 313.932,441.581 312.5,444.5C 310.629,445.767 308.796,445.767 307,444.5C 306.333,443.833 306.333,443.167 307,442.5C 307.995,441.934 308.828,441.267 309.5,440.5 Z"/></g>
<g><path style="opacity:1" fill="#2e743c" d="M 286.5,443.5 C 289.5,443.167 290.833,444.5 290.5,447.5C 288.801,447.66 287.134,447.494 285.5,447C 284.748,446.329 284.414,445.496 284.5,444.5C 285.492,444.672 286.158,444.338 286.5,443.5 Z"/></g>
<g><path style="opacity:0.798" fill="#357542" d="M 294.5,445.5 C 296.75,445.181 298.75,445.681 300.5,447C 298.697,449.103 296.364,449.936 293.5,449.5C 293.433,448.041 293.766,446.708 294.5,445.5 Z"/></g>
</svg>
